<svg width="32" height="32" viewBox="0 0 32 32" fill="none" xmlns="http://www.w3.org/2000/svg">
<path d="M7.5 29.3346C6.52778 29.3346 5.70144 28.9943 5.021 28.3136C4.34033 27.6332 4 26.8069 4 25.8346V21.3346H8V2.66797H28V25.8346C28 26.8069 27.6598 27.6332 26.9793 28.3136C26.2987 28.9943 25.4722 29.3346 24.5 29.3346H7.5ZM24.497 27.3346C24.9212 27.3346 25.2778 27.1909 25.5667 26.9033C25.8556 26.6157 26 26.2595 26 25.8346V4.66797H10V21.3346H23V25.8346C23 26.2595 23.1434 26.6157 23.4303 26.9033C23.7172 27.1909 24.0728 27.3346 24.497 27.3346ZM12 10.668V8.66797H24V10.668H12ZM12 14.668V12.668H24V14.668H12ZM7.46667 27.3346H21V23.3346H6V25.8346C6 26.2595 6.14444 26.6157 6.43333 26.9033C6.72222 27.1909 7.06667 27.3346 7.46667 27.3346ZM7.46667 27.3346H6H21H7.46667Z" fill="#3677E0"/>
</svg>
