<svg width="32" height="32" viewBox="0 0 32 32" fill="none" xmlns="http://www.w3.org/2000/svg">
<path d="M17.0007 23.943H16.9757V23.968V25.2763H15.0257V23.968V23.943H15.0007H12.0257V21.993H18.0007H18.0257V21.968V19.6346V19.6096H18.0007H13.0007C12.7236 19.6096 12.4926 19.5162 12.306 19.3293L12.306 19.3293C12.1191 19.1426 12.0257 18.9117 12.0257 18.6346V14.3013C12.0257 14.0243 12.1191 13.7932 12.306 13.6063C12.4926 13.4197 12.7236 13.3263 13.0007 13.3263H15.0007H15.0257V13.3013V11.993H16.9757V13.3013V13.3263H17.0007H19.9757V15.2763H14.0007H13.9757V15.3013V17.6346V17.6596H14.0007H19.0007C19.2777 17.6596 19.5088 17.753 19.6956 17.9397C19.8823 18.1265 19.9757 18.3576 19.9757 18.6346V22.968C19.9757 23.245 19.8823 23.476 19.6956 23.6626C19.5088 23.8495 19.2777 23.943 19.0007 23.943H17.0007ZM24.6673 9.94297H17.7256V4.66797V4.64297H17.7007H7.33398H7.30898V4.66797V27.3346V27.3596H7.33398H24.6673H24.6923V27.3346V9.96797V9.94297H24.6673ZM7.33398 29.3096C6.80771 29.3096 6.34729 29.1126 5.95166 28.717C5.55603 28.3213 5.35898 27.8609 5.35898 27.3346V4.66797C5.35898 4.1417 5.55603 3.68127 5.95166 3.28565C6.34729 2.89002 6.80771 2.69297 7.33398 2.69297H19.357L26.6423 9.97832V27.3346C26.6423 27.8609 26.4453 28.3213 26.0496 28.717C25.654 29.1126 25.1936 29.3096 24.6673 29.3096H7.33398Z" fill="#3677E0" stroke="#3677E0" stroke-width="0.05"/>
</svg>
