<svg width="36" height="43" viewBox="0 0 36 43" fill="none" xmlns="http://www.w3.org/2000/svg">
<mask id="mask0_7_182" style="mask-type:luminance" maskUnits="userSpaceOnUse" x="0" y="3" width="36" height="37">
<path d="M36 3.31006H0V39.3101H36V3.31006Z" fill="white"/>
</mask>
<g mask="url(#mask0_7_182)">
<path d="M18.7593 20.5847C18.7534 20.5785 18.7518 20.5702 18.7457 20.5642L12.7267 14.5451V10.7631C12.7267 10.4829 12.6154 10.2151 12.4178 10.0173L6.08961 3.61898C5.78889 3.31832 5.33467 3.22664 4.94014 3.3904C4.54569 3.5531 4.28919 3.93834 4.28919 4.36472V7.52878H1.05482C0.628511 7.52871 0.243269 7.78514 0.0805658 8.17966C-0.083192 8.57411 0.00744081 9.02735 0.309222 9.32913L6.70766 15.7275C6.90545 15.9253 7.1732 16.0366 7.45332 16.0366H11.2353L17.2544 22.0556C17.2605 22.0616 17.2687 22.0633 17.2749 22.0692C17.6855 22.4611 18.3093 22.4663 18.7253 22.0692C19.1635 21.651 19.1537 20.9978 18.7593 20.5847Z" fill="url(#paint0_linear_7_182)"/>
<path d="M17.9998 3.31006C15.3012 3.31006 12.7497 3.99666 10.4519 5.06914L13.6873 8.30449C15.0452 7.85295 16.4925 7.59912 17.9999 7.59912C25.5598 7.59905 31.7107 13.75 31.7107 21.3099C31.7107 28.8699 25.5598 35.0207 17.9998 35.0207C10.4398 35.0207 4.28899 28.8699 4.28899 21.3099C4.28899 19.8024 4.54289 18.3551 4.99437 16.9973L1.75901 13.762C0.686672 16.0597 0 18.6113 0 21.3099C0 31.1965 8.11329 39.3099 17.9998 39.3099C27.8865 39.3099 35.9998 31.1965 35.9998 21.3099C35.9998 11.4233 27.8865 3.31006 17.9998 3.31006Z" fill="url(#paint1_linear_7_182)"/>
<path d="M17.9999 11.8179C16.8851 11.8179 15.8304 12.0464 14.8359 12.401V13.6718L17.2741 16.11C17.5136 16.0766 17.7513 16.0366 17.9999 16.0366C20.9076 16.0366 23.2734 18.4024 23.2734 21.31C23.2734 24.2177 20.9076 26.5835 17.9999 26.5835C15.0923 26.5835 12.7265 24.2177 12.7265 21.31C12.7265 21.0615 12.7665 20.8236 12.7999 20.5842L10.3617 18.1459H9.09094C8.73634 19.1405 8.50781 20.1952 8.50781 21.31C8.50781 26.5443 12.7657 30.8021 17.9999 30.8021C23.2341 30.8021 27.4921 26.5443 27.4921 21.31C27.4921 16.0757 23.2342 11.8179 17.9999 11.8179Z" fill="url(#paint2_linear_7_182)"/>
</g>
<defs>
<linearGradient id="paint0_linear_7_182" x1="-10.5753" y1="-14.3158" x2="27.2491" y2="32.4634" gradientUnits="userSpaceOnUse">
<stop stop-color="#FF0000"/>
<stop offset="1" stop-color="#EF7C05"/>
</linearGradient>
<linearGradient id="paint1_linear_7_182" x1="-19.9799" y1="-29.9898" x2="51.4797" y2="58.3897" gradientUnits="userSpaceOnUse">
<stop stop-color="#FF0000"/>
<stop offset="1" stop-color="#EF7C05"/>
</linearGradient>
<linearGradient id="paint2_linear_7_182" x1="-2.02848" y1="-5.7425" x2="35.6552" y2="40.8639" gradientUnits="userSpaceOnUse">
<stop stop-color="#FF0000"/>
<stop offset="1" stop-color="#EF7C05"/>
</linearGradient>
</defs>
</svg>
