<svg width="36" height="36" viewBox="0 0 36 36" fill="none" xmlns="http://www.w3.org/2000/svg">
<path d="M29.8131 0.310059H29.1378V3.25775C29.1378 5.78184 27.1003 7.82767 24.5871 7.82767H11.4132C8.89966 7.82767 6.86216 5.78184 6.86216 3.25775V0.310059H6.18822C4.42723 0.310059 3 1.7433 3 3.51171V32.1095C3 33.8771 4.42697 35.3101 6.18693 35.3101H29.8131C31.573 35.3101 33 33.8771 33 32.1095V3.5099C33 1.74278 31.573 0.310059 29.8131 0.310059ZM28.0919 15.3773C28.0919 17.0273 26.7553 18.3701 25.1121 18.3701H11.3284C10.7805 18.3701 10.3348 18.8174 10.3348 19.3674C10.3348 19.9178 10.7808 20.3651 11.3284 20.3651H24.573C26.458 20.3651 28.0184 21.9048 28.0516 23.7978C28.068 24.7424 27.7139 25.6337 27.0546 26.3077C26.3951 26.9819 25.5137 27.3526 24.573 27.3526H11.4073C10.8596 27.3526 10.4142 27.8005 10.4142 28.3504C10.4142 28.9004 10.8596 29.3482 11.4073 29.3482H15.4201C16.0992 29.3482 16.6497 29.9012 16.6497 30.5834C16.6497 31.2654 16.0992 31.8181 15.4201 31.8181H11.4073C9.50352 31.8181 7.95409 30.2627 7.95409 28.3504C7.95409 26.4387 9.50352 24.8827 11.4073 24.8827H24.573C24.8487 24.8827 25.107 24.7742 25.3001 24.5764C25.4931 24.3789 25.5969 24.1177 25.5922 23.8408C25.5825 23.2865 25.1252 22.8351 24.5727 22.8351H11.3284C9.42444 22.8351 7.87527 21.2794 7.87527 19.3674C7.87527 17.4551 9.42444 15.8996 11.3284 15.8996H25.1121C25.3986 15.8996 25.6323 15.6653 25.6323 15.3773V12.0075C25.6323 11.3256 26.1827 10.7726 26.8621 10.7726C27.5412 10.7726 28.0919 11.3256 28.0919 12.0075V15.3773Z" fill="url(#paint0_linear_7_195)"/>
<defs>
<linearGradient id="paint0_linear_7_195" x1="-13.65" y1="-32.0649" x2="57.2788" y2="43.1263" gradientUnits="userSpaceOnUse">
<stop stop-color="#FF0000"/>
<stop offset="1" stop-color="#EF7C05"/>
</linearGradient>
</defs>
</svg>
