<svg width="36" height="43" viewBox="0 0 36 43" fill="none" xmlns="http://www.w3.org/2000/svg">
<mask id="mask0_7_202" style="mask-type:luminance" maskUnits="userSpaceOnUse" x="0" y="3" width="36" height="37">
<path d="M36 3.31006H0V39.3101H36V3.31006Z" fill="white"/>
</mask>
<g mask="url(#mask0_7_202)">
<path d="M25.153 24.489C26.6724 23.6117 27.3069 21.7913 27.5498 20.7843C27.6816 20.2373 27.3622 19.6841 26.8227 19.525C25.829 19.2317 23.9354 18.8709 22.4158 19.7482C21.1015 20.507 20.4496 21.9713 20.1404 23.0047L19.0544 23.6317V19.2136C19.7947 18.429 20.7369 17.1323 20.7369 15.6148C20.7369 13.8602 19.4775 12.4007 18.7268 11.6867C18.3192 11.2992 17.6804 11.299 17.2727 11.6867C17.2726 11.6867 17.2727 11.6866 17.2727 11.6867C16.522 12.4006 15.2625 13.8604 15.2625 15.6148C15.2625 17.1323 16.2047 18.4288 16.945 19.2136V23.6318L15.859 23.0048C15.5498 21.9714 14.8979 20.5071 13.5835 19.7482C12.064 18.8709 10.1703 19.2317 9.17666 19.5251C8.63709 19.6842 8.31774 20.2373 8.44958 20.7843C8.69254 21.7913 9.32692 23.6119 10.8463 24.4891C11.5628 24.9028 12.3624 25.0411 13.1116 25.0411C13.7368 25.0411 14.3269 24.9447 14.8043 24.8316L16.945 26.0674V28.6225C16.945 29.2049 17.4172 29.6771 17.9997 29.6771C18.5822 29.6771 19.0544 29.2049 19.0544 28.6225V26.0674L21.1951 24.8315C21.6725 24.9447 22.2624 25.041 22.8877 25.041C23.6369 25.041 24.4367 24.9026 25.153 24.489Z" fill="url(#paint0_linear_7_202)"/>
<path d="M4.52285 22.2703C4.27121 18.7138 5.41407 15.0771 7.95516 12.2596L8.57529 12.8798C9.14392 13.4485 10.1143 13.197 10.3353 12.4237L12.1103 6.21098C12.3376 5.4154 11.6021 4.67979 10.8065 4.9071L4.59373 6.68221C3.8205 6.90314 3.56907 7.87345 4.13769 8.44214L4.77177 9.07621C4.77535 9.0798 4.77928 9.08282 4.78294 9.08634C1.50561 12.6256 -0.0861283 17.1606 0.00359031 21.6691C0.0128012 22.1314 0.324285 22.533 0.768872 22.6601L3.18045 23.3491C3.88027 23.5491 4.57425 22.9963 4.52285 22.2703Z" fill="url(#paint1_linear_7_202)"/>
<path d="M31.228 33.5435C31.2244 33.5399 31.2205 33.5369 31.2168 33.5333C34.4942 29.994 36.086 25.4591 35.9962 20.9505C35.987 20.4883 35.6755 20.0865 35.231 19.9595L32.8194 19.2706C32.1196 19.0706 31.4255 19.6233 31.477 20.3494C31.7286 23.9058 30.5858 27.5425 28.0447 30.36L27.4245 29.74C26.8559 29.1713 25.8856 29.4227 25.6647 30.196L23.8895 36.4086C23.6622 37.2042 24.3977 37.9398 25.1934 37.7125L31.4062 35.9375C32.1794 35.7166 32.4308 34.7463 31.8622 34.1776L31.228 33.5435Z" fill="url(#paint2_linear_7_202)"/>
<path d="M18.9598 34.7871C15.4035 35.0386 11.7669 33.8957 8.94953 31.3548L9.56967 30.7346C10.1382 30.166 9.88682 29.1956 9.11359 28.9747L2.90092 27.1996C2.10534 26.9723 1.36973 27.7079 1.59705 28.5035L3.37209 34.7161C3.59301 35.4894 4.56333 35.7408 5.13201 35.1722L5.76609 34.5381C5.76968 34.5346 5.77269 34.5306 5.77622 34.527C9.31545 37.8042 13.8502 39.396 18.3586 39.3064C18.8208 39.2971 19.2226 38.9856 19.3496 38.5411L20.0386 36.1296C20.2386 35.4297 19.6858 34.7358 18.9598 34.7871Z" fill="url(#paint3_linear_7_202)"/>
<path d="M17.0401 7.83283C20.5964 7.58132 24.233 8.72432 27.0503 11.2652L26.4302 11.8853C25.8616 12.454 26.113 13.4243 26.8862 13.6452L33.0988 15.4203C33.8944 15.6476 34.63 14.912 34.4027 14.1164L32.6277 7.90364C32.4068 7.13041 31.4365 6.87897 30.8678 7.44759L30.2337 8.08167C30.2302 8.08525 30.2271 8.08926 30.2235 8.09292C26.6843 4.81579 22.1497 3.22406 17.6412 3.31364C17.179 3.32285 16.7772 3.63433 16.6503 4.07892L15.9612 6.49043C15.7613 7.19025 16.314 7.88424 17.0401 7.83283Z" fill="url(#paint4_linear_7_202)"/>
</g>
<defs>
<linearGradient id="paint0_linear_7_202" x1="-2.2136" y1="-5.51406" x2="33.6822" y2="41.0139" gradientUnits="userSpaceOnUse">
<stop stop-color="#FF0000"/>
<stop offset="1" stop-color="#EF7C05"/>
</linearGradient>
<linearGradient id="paint1_linear_7_202" x1="-6.74449" y1="-12.2706" x2="30.0539" y2="17.5842" gradientUnits="userSpaceOnUse">
<stop stop-color="#FF0000"/>
<stop offset="1" stop-color="#EF7C05"/>
</linearGradient>
<linearGradient id="paint2_linear_7_202" x1="17.1032" y1="2.09344" x2="53.9016" y2="31.948" gradientUnits="userSpaceOnUse">
<stop stop-color="#FF0000"/>
<stop offset="1" stop-color="#EF7C05"/>
</linearGradient>
<linearGradient id="paint3_linear_7_202" x1="-8.72604" y1="15.9169" x2="11.6974" y2="54.4218" gradientUnits="userSpaceOnUse">
<stop stop-color="#FF0000"/>
<stop offset="1" stop-color="#EF7C05"/>
</linearGradient>
<linearGradient id="paint4_linear_7_202" x1="5.63873" y1="-7.9306" x2="26.0618" y2="30.5741" gradientUnits="userSpaceOnUse">
<stop stop-color="#FF0000"/>
<stop offset="1" stop-color="#EF7C05"/>
</linearGradient>
</defs>
</svg>
