<svg width="320" height="65" viewBox="0 0 320 65" fill="none" xmlns="http://www.w3.org/2000/svg">
<path d="M22.681 42.586L1.2684 27.8156C-0.901507 26.3189 -0.163881 23.2024 2.54194 22.4696L25.2997 16.2929C25.7818 16.1189 26.2984 16.0625 26.8067 16.1282C27.3149 16.1939 27.8002 16.3798 28.2223 16.6707C28.6442 16.9615 28.9908 17.3488 29.2331 17.8004C29.4754 18.2519 29.6066 18.7548 29.6157 19.2672L28.2669 40.2132C28.107 42.6994 24.8509 44.0828 22.681 42.586Z" fill="#475569"/>
<path d="M15.8901 46.2312L3.27525 21.5614C2.98688 20.997 2.85999 20.364 2.90856 19.732C2.95712 19.1001 3.17927 18.4939 3.55048 17.9802C3.92171 17.4666 4.42758 17.0654 5.01232 16.8209C5.59706 16.5765 6.23795 16.4983 6.86431 16.5949L30.2428 20.2031C30.7809 20.2862 31.2918 20.4958 31.7333 20.8148C32.1747 21.1338 32.5341 21.553 32.782 22.038C33.0297 22.5229 33.159 23.0598 33.1589 23.6044C33.1588 24.149 33.0294 24.6859 32.7815 25.1707L22.0119 46.2324C21.7227 46.7952 21.284 47.2673 20.7439 47.5969C20.2038 47.9265 19.5834 48.1008 18.9506 48.1007C18.3179 48.1006 17.6975 47.9261 17.1575 47.5963C16.6176 47.2664 16.1791 46.7941 15.8901 46.2312Z" fill="#475569"/>
<path d="M23.5791 24.8285L19.0903 24.1016L13.5791 25.6717L15.7789 30.1871L20.9301 33.9168C21.0438 33.9982 21.1688 34.0605 21.3007 34.1016L23.2573 30.0868L23.5791 24.8285Z" fill="white"/>
<path d="M51.5645 35.6367C51.5645 35.332 51.5176 35.0586 51.4238 34.8164C51.3379 34.5664 51.1738 34.3398 50.9316 34.1367C50.6895 33.9258 50.3496 33.7188 49.9121 33.5156C49.4746 33.3125 48.9082 33.1016 48.2129 32.8828C47.4395 32.6328 46.7051 32.3516 46.0098 32.0391C45.3223 31.7266 44.7129 31.3633 44.1816 30.9492C43.6582 30.5273 43.2441 30.0391 42.9395 29.4844C42.6426 28.9297 42.4941 28.2852 42.4941 27.5508C42.4941 26.8398 42.6504 26.1953 42.9629 25.6172C43.2754 25.0312 43.7129 24.5312 44.2754 24.1172C44.8379 23.6953 45.502 23.3711 46.2676 23.1445C47.041 22.918 47.8887 22.8047 48.8105 22.8047C50.0684 22.8047 51.166 23.0312 52.1035 23.4844C53.041 23.9375 53.7676 24.5586 54.2832 25.3477C54.8066 26.1367 55.0684 27.0391 55.0684 28.0547H51.5762C51.5762 27.5547 51.4707 27.1172 51.2598 26.7422C51.0566 26.3594 50.7441 26.0586 50.3223 25.8398C49.9082 25.6211 49.3848 25.5117 48.752 25.5117C48.1426 25.5117 47.6348 25.6055 47.2285 25.793C46.8223 25.9727 46.5176 26.2188 46.3145 26.5312C46.1113 26.8359 46.0098 27.1797 46.0098 27.5625C46.0098 27.8516 46.0801 28.1133 46.2207 28.3477C46.3691 28.582 46.5879 28.8008 46.877 29.0039C47.166 29.207 47.5215 29.3984 47.9434 29.5781C48.3652 29.7578 48.8535 29.9336 49.4082 30.1055C50.3379 30.3867 51.1543 30.7031 51.8574 31.0547C52.5684 31.4062 53.1621 31.8008 53.6387 32.2383C54.1152 32.6758 54.4746 33.1719 54.7168 33.7266C54.959 34.2812 55.0801 34.9102 55.0801 35.6133C55.0801 36.3555 54.9355 37.0195 54.6465 37.6055C54.3574 38.1914 53.9395 38.6875 53.3926 39.0938C52.8457 39.5 52.1934 39.8086 51.4355 40.0195C50.6777 40.2305 49.8301 40.3359 48.8926 40.3359C48.0488 40.3359 47.2168 40.2266 46.3965 40.0078C45.5762 39.7812 44.8301 39.4414 44.1582 38.9883C43.4941 38.5352 42.9629 37.957 42.5645 37.2539C42.166 36.5508 41.9668 35.7188 41.9668 34.7578H45.4941C45.4941 35.2891 45.5762 35.7383 45.7402 36.1055C45.9043 36.4727 46.1348 36.7695 46.4316 36.9961C46.7363 37.2227 47.0957 37.3867 47.5098 37.4883C47.9316 37.5898 48.3926 37.6406 48.8926 37.6406C49.502 37.6406 50.002 37.5547 50.3926 37.3828C50.791 37.2109 51.084 36.9727 51.2715 36.668C51.4668 36.3633 51.5645 36.0195 51.5645 35.6367ZM60.6348 30.0469V40.1016H57.248V27.4219H60.4238L60.6348 30.0469ZM60.166 33.3164H59.2285C59.2285 32.4336 59.334 31.6211 59.5449 30.8789C59.7637 30.1289 60.0801 29.4805 60.4941 28.9336C60.916 28.3789 61.4355 27.9492 62.0527 27.6445C62.6699 27.3398 63.3848 27.1875 64.1973 27.1875C64.7598 27.1875 65.2754 27.2734 65.7441 27.4453C66.2129 27.6094 66.6152 27.8711 66.9512 28.2305C67.2949 28.582 67.5605 29.043 67.748 29.6133C67.9355 30.1758 68.0293 30.8516 68.0293 31.6406V40.1016H64.6543V32.0156C64.6543 31.4375 64.5762 30.9922 64.4199 30.6797C64.2637 30.3672 64.041 30.1484 63.752 30.0234C63.4707 29.8984 63.1309 29.8359 62.7324 29.8359C62.2949 29.8359 61.9121 29.9258 61.584 30.1055C61.2637 30.2852 60.998 30.5352 60.7871 30.8555C60.5762 31.168 60.4199 31.5352 60.3184 31.957C60.2168 32.3789 60.166 32.832 60.166 33.3164ZM67.7129 32.9297L66.5059 33.082C66.5059 32.2539 66.6074 31.4844 66.8105 30.7734C67.0215 30.0625 67.3301 29.4375 67.7363 28.8984C68.1504 28.3594 68.6621 27.9414 69.2715 27.6445C69.8809 27.3398 70.584 27.1875 71.3809 27.1875C71.9902 27.1875 72.5449 27.2773 73.0449 27.457C73.5449 27.6289 73.9707 27.9062 74.3223 28.2891C74.6816 28.6641 74.9551 29.1562 75.1426 29.7656C75.3379 30.375 75.4355 31.1211 75.4355 32.0039V40.1016H72.0488V32.0039C72.0488 31.418 71.9707 30.9727 71.8145 30.668C71.666 30.3555 71.4473 30.1406 71.1582 30.0234C70.877 29.8984 70.541 29.8359 70.1504 29.8359C69.7441 29.8359 69.3887 29.918 69.084 30.082C68.7793 30.2383 68.5254 30.457 68.3223 30.7383C68.1191 31.0195 67.9668 31.3477 67.8652 31.7227C67.7637 32.0898 67.7129 32.4922 67.7129 32.9297ZM84.8926 37.2422V31.5938C84.8926 31.1875 84.8262 30.8398 84.6934 30.5508C84.5605 30.2539 84.3535 30.0234 84.0723 29.8594C83.7988 29.6953 83.4434 29.6133 83.0059 29.6133C82.6309 29.6133 82.3066 29.6797 82.0332 29.8125C81.7598 29.9375 81.5488 30.1211 81.4004 30.3633C81.252 30.5977 81.1777 30.875 81.1777 31.1953H77.8027C77.8027 30.6562 77.9277 30.1445 78.1777 29.6602C78.4277 29.1758 78.791 28.75 79.2676 28.3828C79.7441 28.0078 80.3105 27.7148 80.9668 27.5039C81.6309 27.293 82.373 27.1875 83.1934 27.1875C84.1777 27.1875 85.0527 27.3516 85.8184 27.6797C86.584 28.0078 87.1855 28.5 87.623 29.1562C88.0684 29.8125 88.291 30.6328 88.291 31.6172V37.043C88.291 37.7383 88.334 38.3086 88.4199 38.7539C88.5059 39.1914 88.6309 39.5742 88.7949 39.9023V40.1016H85.3848C85.2207 39.7578 85.0957 39.3281 85.0098 38.8125C84.9316 38.2891 84.8926 37.7656 84.8926 37.2422ZM85.3379 32.3789L85.3613 34.2891H83.4746C83.0293 34.2891 82.6426 34.3398 82.3145 34.4414C81.9863 34.543 81.7168 34.6875 81.5059 34.875C81.2949 35.0547 81.1387 35.2656 81.0371 35.5078C80.9434 35.75 80.8965 36.0156 80.8965 36.3047C80.8965 36.5938 80.9629 36.8555 81.0957 37.0898C81.2285 37.3164 81.4199 37.4961 81.6699 37.6289C81.9199 37.7539 82.2129 37.8164 82.5488 37.8164C83.0566 37.8164 83.498 37.7148 83.873 37.5117C84.248 37.3086 84.5371 37.0586 84.7402 36.7617C84.9512 36.4648 85.0605 36.1836 85.0684 35.918L85.959 37.3477C85.834 37.668 85.6621 38 85.4434 38.3438C85.2324 38.6875 84.9629 39.0117 84.6348 39.3164C84.3066 39.6133 83.9121 39.8594 83.4512 40.0547C82.9902 40.2422 82.4434 40.3359 81.8105 40.3359C81.0059 40.3359 80.2754 40.1758 79.6191 39.8555C78.9707 39.5273 78.4551 39.0781 78.0723 38.5078C77.6973 37.9297 77.5098 37.2734 77.5098 36.5391C77.5098 35.875 77.6348 35.2852 77.8848 34.7695C78.1348 34.2539 78.502 33.8203 78.9863 33.4688C79.4785 33.1094 80.0918 32.8398 80.8262 32.6602C81.5605 32.4727 82.4121 32.3789 83.3809 32.3789H85.3379ZM94.2676 30.1875V40.1016H90.8926V27.4219H94.0684L94.2676 30.1875ZM98.0879 27.3398L98.0293 30.4688C97.8652 30.4453 97.666 30.4258 97.4316 30.4102C97.2051 30.3867 96.998 30.375 96.8105 30.375C96.334 30.375 95.9199 30.4375 95.5684 30.5625C95.2246 30.6797 94.9355 30.8555 94.7012 31.0898C94.4746 31.3242 94.3027 31.6094 94.1855 31.9453C94.0762 32.2812 94.0137 32.6641 93.998 33.0938L93.3184 32.8828C93.3184 32.0625 93.4004 31.3086 93.5645 30.6211C93.7285 29.9258 93.9668 29.3203 94.2793 28.8047C94.5996 28.2891 94.9902 27.8906 95.4512 27.6094C95.9121 27.3281 96.4395 27.1875 97.0332 27.1875C97.2207 27.1875 97.4121 27.2031 97.6074 27.2344C97.8027 27.2578 97.9629 27.293 98.0879 27.3398ZM106.479 27.4219V29.8125H99.0957V27.4219H106.479ZM100.924 24.293H104.299V36.2812C104.299 36.6484 104.346 36.9297 104.439 37.125C104.541 37.3203 104.689 37.457 104.885 37.5352C105.08 37.6055 105.326 37.6406 105.623 37.6406C105.834 37.6406 106.021 37.6328 106.186 37.6172C106.357 37.5938 106.502 37.5703 106.619 37.5469L106.631 40.0312C106.342 40.125 106.029 40.1992 105.693 40.2539C105.357 40.3086 104.986 40.3359 104.58 40.3359C103.838 40.3359 103.189 40.2148 102.635 39.9727C102.088 39.7227 101.666 39.3242 101.369 38.7773C101.072 38.2305 100.924 37.5117 100.924 36.6211V24.293ZM112.127 23.0391V40.1016H108.611V23.0391H112.127ZM118.924 30.3281V33.0703H111.166V30.3281H118.924ZM119.744 23.0391V25.793H111.166V23.0391H119.744ZM125.135 27.4219V40.1016H121.748V27.4219H125.135ZM121.537 24.1172C121.537 23.625 121.709 23.2188 122.053 22.8984C122.396 22.5781 122.857 22.418 123.436 22.418C124.006 22.418 124.463 22.5781 124.807 22.8984C125.158 23.2188 125.334 23.625 125.334 24.1172C125.334 24.6094 125.158 25.0156 124.807 25.3359C124.463 25.6562 124.006 25.8164 123.436 25.8164C122.857 25.8164 122.396 25.6562 122.053 25.3359C121.709 25.0156 121.537 24.6094 121.537 24.1172ZM131.229 30.1289V40.1016H127.854V27.4219H131.018L131.229 30.1289ZM130.736 33.3164H129.822C129.822 32.3789 129.943 31.5352 130.186 30.7852C130.428 30.0273 130.768 29.3828 131.205 28.8516C131.643 28.3125 132.162 27.9023 132.764 27.6211C133.373 27.332 134.053 27.1875 134.803 27.1875C135.396 27.1875 135.939 27.2734 136.432 27.4453C136.924 27.6172 137.346 27.8906 137.697 28.2656C138.057 28.6406 138.33 29.1367 138.518 29.7539C138.713 30.3711 138.811 31.125 138.811 32.0156V40.1016H135.412V32.0039C135.412 31.4414 135.334 31.0039 135.178 30.6914C135.021 30.3789 134.791 30.1602 134.486 30.0352C134.189 29.9023 133.822 29.8359 133.385 29.8359C132.932 29.8359 132.537 29.9258 132.201 30.1055C131.873 30.2852 131.6 30.5352 131.381 30.8555C131.17 31.168 131.01 31.5352 130.9 31.957C130.791 32.3789 130.736 32.832 130.736 33.3164ZM148.865 37.3359V22.1016H152.264V40.1016H149.205L148.865 37.3359ZM140.85 33.9141V33.668C140.85 32.6992 140.959 31.8203 141.178 31.0312C141.396 30.2344 141.717 29.5508 142.139 28.9805C142.561 28.4102 143.08 27.9688 143.697 27.6562C144.314 27.3438 145.018 27.1875 145.807 27.1875C146.549 27.1875 147.197 27.3438 147.752 27.6562C148.314 27.9688 148.791 28.4141 149.182 28.9922C149.58 29.5625 149.9 30.2383 150.143 31.0195C150.385 31.793 150.561 32.6406 150.67 33.5625V34.1016C150.561 34.9844 150.385 35.8047 150.143 36.5625C149.9 37.3203 149.58 37.9844 149.182 38.5547C148.791 39.1172 148.314 39.5547 147.752 39.8672C147.189 40.1797 146.533 40.3359 145.783 40.3359C144.994 40.3359 144.291 40.1758 143.674 39.8555C143.064 39.5352 142.549 39.0859 142.127 38.5078C141.713 37.9297 141.396 37.25 141.178 36.4688C140.959 35.6875 140.85 34.8359 140.85 33.9141ZM144.225 33.668V33.9141C144.225 34.4375 144.264 34.9258 144.342 35.3789C144.428 35.832 144.564 36.2344 144.752 36.5859C144.947 36.9297 145.197 37.1992 145.502 37.3945C145.814 37.582 146.193 37.6758 146.639 37.6758C147.217 37.6758 147.693 37.5469 148.068 37.2891C148.443 37.0234 148.729 36.6602 148.924 36.1992C149.127 35.7383 149.244 35.207 149.275 34.6055V33.0703C149.252 32.5781 149.182 32.1367 149.064 31.7461C148.955 31.3477 148.791 31.0078 148.572 30.7266C148.361 30.4453 148.096 30.2266 147.775 30.0703C147.463 29.9141 147.092 29.8359 146.662 29.8359C146.225 29.8359 145.85 29.9375 145.537 30.1406C145.225 30.3359 144.971 30.6055 144.775 30.9492C144.588 31.293 144.447 31.6992 144.354 32.168C144.268 32.6289 144.225 33.1289 144.225 33.668ZM160.736 40.3359C159.752 40.3359 158.869 40.1797 158.088 39.8672C157.307 39.5469 156.643 39.1055 156.096 38.543C155.557 37.9805 155.143 37.3281 154.854 36.5859C154.564 35.8359 154.42 35.0391 154.42 34.1953V33.7266C154.42 32.7656 154.557 31.8867 154.83 31.0898C155.104 30.293 155.494 29.6016 156.002 29.0156C156.518 28.4297 157.143 27.9805 157.877 27.668C158.611 27.3477 159.439 27.1875 160.361 27.1875C161.26 27.1875 162.057 27.3359 162.752 27.6328C163.447 27.9297 164.029 28.3516 164.498 28.8984C164.975 29.4453 165.334 30.1016 165.576 30.8672C165.818 31.625 165.939 32.4688 165.939 33.3984V34.8047H155.861V32.5547H162.623V32.2969C162.623 31.8281 162.537 31.4102 162.365 31.043C162.201 30.668 161.951 30.3711 161.615 30.1523C161.279 29.9336 160.85 29.8242 160.326 29.8242C159.881 29.8242 159.498 29.9219 159.178 30.1172C158.857 30.3125 158.596 30.5859 158.393 30.9375C158.197 31.2891 158.049 31.7031 157.947 32.1797C157.854 32.6484 157.807 33.1641 157.807 33.7266V34.1953C157.807 34.7031 157.877 35.1719 158.018 35.6016C158.166 36.0312 158.373 36.4023 158.639 36.7148C158.912 37.0273 159.24 37.2695 159.623 37.4414C160.014 37.6133 160.455 37.6992 160.947 37.6992C161.557 37.6992 162.123 37.582 162.646 37.3477C163.178 37.1055 163.635 36.7422 164.018 36.2578L165.658 38.0391C165.393 38.4219 165.029 38.7891 164.568 39.1406C164.115 39.4922 163.568 39.7812 162.928 40.0078C162.287 40.2266 161.557 40.3359 160.736 40.3359ZM171.236 30.1875V40.1016H167.861V27.4219H171.037L171.236 30.1875ZM175.057 27.3398L174.998 30.4688C174.834 30.4453 174.635 30.4258 174.4 30.4102C174.174 30.3867 173.967 30.375 173.779 30.375C173.303 30.375 172.889 30.4375 172.537 30.5625C172.193 30.6797 171.904 30.8555 171.67 31.0898C171.443 31.3242 171.271 31.6094 171.154 31.9453C171.045 32.2812 170.982 32.6641 170.967 33.0938L170.287 32.8828C170.287 32.0625 170.369 31.3086 170.533 30.6211C170.697 29.9258 170.936 29.3203 171.248 28.8047C171.568 28.2891 171.959 27.8906 172.42 27.6094C172.881 27.3281 173.408 27.1875 174.002 27.1875C174.189 27.1875 174.381 27.2031 174.576 27.2344C174.771 27.2578 174.932 27.293 175.057 27.3398Z" fill="#475569"/>
</svg>
