<svg width="41" height="35" viewBox="0 0 41 35" fill="none" xmlns="http://www.w3.org/2000/svg">
<path d="M26.6719 34.25L19.125 26.7031L21.1406 24.6875L26.6719 30.2188L38.1094 18.7812L40.125 20.7969L26.6719 34.25ZM19.4062 13.2969L35.0625 3.3125H3.75L19.4062 13.2969ZM19.4062 16.1094L3.5625 5.9375V27.125H15.5625L18.375 29.9375H3.5625C2.8125 29.9375 2.15625 29.6562 1.59375 29.0938C1.03125 28.5312 0.75 27.875 0.75 27.125V3.3125C0.75 2.5625 1.03125 1.90625 1.59375 1.34375C2.15625 0.78125 2.8125 0.5 3.5625 0.5H35.2969C36.0469 0.5 36.7031 0.78125 37.2656 1.34375C37.8281 1.90625 38.1094 2.5625 38.1094 3.3125V14.75L35.2969 17.5625V5.9375L19.4062 16.1094Z" fill="#3677E0"/>
</svg>
