<?xml version="1.0" encoding="UTF-8"?>
<svg version="1.1" xmlns="http://www.w3.org/2000/svg" width="977" height="472">
<path d="M0 0 C184.8 0 369.6 0 560 0 C560 35.31 560 70.62 560 107 C375.2 107 190.4 107 0 107 C0 71.69 0 36.38 0 0 Z " fill="#1068B1" transform="translate(391,365)"/>
<path d="M0 0 C14.52 0 29.04 0 44 0 C44 17.49 44 34.98 44 53 C56.9527237 52.92128755 56.9527237 52.92128755 69.90527344 52.81982422 C87.04020822 52.72955927 103.95028945 53.54233681 117 66 C126.51289801 75.96499614 129.16543221 87.46350828 129.11352539 100.83911133 C129.11367142 101.82495209 129.11381744 102.81079285 129.1139679 103.82650757 C129.11327237 107.07837134 129.10549681 110.33017751 129.09765625 113.58203125 C129.09579079 115.83932972 129.09436749 118.09662859 129.09336853 120.35392761 C129.08955343 126.29032512 129.07973172 132.22669811 129.06866455 138.16308594 C129.05662863 145.2883529 129.05204339 152.41362806 129.04621124 159.53890228 C129.03651945 170.35928524 129.01735581 181.17961439 129 192 C114.48 192 99.96 192 85 192 C84.95101562 185.82410156 84.90203125 179.64820313 84.8515625 173.28515625 C84.81615687 169.36131222 84.78018582 165.43748956 84.7421875 161.51367188 C84.68199288 155.29226824 84.62383729 149.07089434 84.578125 142.84936523 C84.54111942 137.83071773 84.49471874 132.81223528 84.44193649 127.79372978 C84.42347344 125.88372139 84.40833598 123.97367772 84.39665604 122.0636158 C84.37965438 119.37825925 84.35058725 116.6932741 84.31884766 114.00805664 C84.31668747 113.22689987 84.31452728 112.4457431 84.31230164 111.64091492 C84.1710045 102.21893916 82.66869567 94.54251471 75.6875 87.75 C66.37627289 81.68687537 54.53947885 83.47906722 44 83 C44 118.97 44 154.94 44 192 C29.48 192 14.96 192 0 192 C0 156.03 0 120.06 0 83 C-9.9 83 -19.8 83 -30 83 C-28.35 86.96 -26.7 90.92 -25 95 C-22.85763691 107.85417855 -23.99582668 119.5670823 -31.29296875 130.69921875 C-42.55403754 145.87718103 -61.87023072 154.0304475 -78 163 C-76.1128125 163.14695313 -76.1128125 163.14695313 -74.1875 163.296875 C-56.46325535 164.79361993 -36.54156198 166.79682533 -23.75390625 180.65234375 C-15.90798554 191.15434453 -14.22942011 201.18035275 -15 214 C-17.08469438 225.99930389 -24.03560999 234.51877388 -33.734375 241.5234375 C-57.72144871 257.15639244 -94.93932075 255.87720298 -121.73974609 250.50488281 C-131.63464092 248.29461683 -140.64893776 244.85046168 -149 239 C-150.60875 237.88625 -150.60875 237.88625 -152.25 236.75 C-156.67482108 232.32517892 -160.01730428 226.94808715 -162 221 C-162 217.04 -162 213.08 -162 209 C-148.47 209 -134.94 209 -121 209 C-120.34 211.64 -119.68 214.28 -119 217 C-114.0887895 222.50650874 -106.07371195 224.09436906 -99 225 C-95.41587544 225.18945131 -91.83862928 225.230602 -88.25 225.25 C-87.3115625 225.270625 -86.373125 225.29125 -85.40625 225.3125 C-74.96189896 225.3702036 -66.3408392 223.0597424 -58.625 215.75 C-56.42921753 212.03406044 -56.33958351 209.21122723 -57 205 C-58.39339916 200.72027402 -60.86475462 199.33250677 -64.6875 197.3125 C-75.2206183 192.44284096 -86.0409778 191.89273701 -97.50390625 191.68359375 C-98.4677977 191.66281265 -99.43168915 191.64203156 -100.42478943 191.62062073 C-103.47062818 191.55581104 -106.51654495 191.49656284 -109.5625 191.4375 C-111.64128376 191.39424938 -113.72005994 191.35063312 -115.79882812 191.30664062 C-120.8658077 191.20020112 -125.93286488 191.09874547 -131 191 C-130.05521844 189.73196671 -129.10927052 188.46480241 -128.1628418 187.19799805 C-127.63619431 186.49225143 -127.10954681 185.78650482 -126.56694031 185.05937195 C-124.40804649 182.2220173 -122.13001574 179.52269617 -119.8125 176.8125 C-118.86065082 175.69533487 -117.90882875 174.57814665 -116.95703125 173.4609375 C-116.47314941 172.8947168 -115.98926758 172.32849609 -115.49072266 171.74511719 C-112.98744132 168.81464635 -110.49309146 165.87663977 -108 162.9375 C-107.54343018 162.40165283 -107.08686035 161.86580566 -106.61645508 161.3137207 C-104.31774836 158.60528382 -102.09295084 155.8709227 -100 153 C-101.92199219 152.56300781 -101.92199219 152.56300781 -103.8828125 152.1171875 C-122.54674601 147.74930233 -140.52023249 142.19725229 -151.25 124.99609375 C-157.32917563 113.57528954 -157.4687024 101.07730982 -153.96484375 88.7734375 C-149.68097265 76.45947604 -140.37453828 66.26238625 -129 60 C-112.22165423 52.34386164 -94.7377541 52.71443304 -76.66015625 52.8046875 C-74.43957142 52.8084258 -72.21898491 52.8112689 -69.99839783 52.81326294 C-64.20349431 52.82083515 -58.40869386 52.84042728 -52.61383057 52.8626709 C-45.63434224 52.88690148 -38.65481911 52.89594088 -31.6753006 52.90757751 C-21.11679577 52.92685638 -10.5585163 52.96522355 0 53 C0 35.51 0 18.02 0 0 Z M-108.875 89.9375 C-113.14035326 95.20133369 -114.86031364 100.16806719 -115 107 C-113.94987113 114.3509021 -110.85192889 120.93447625 -104.93359375 125.64453125 C-98.0689757 130.03131295 -92.08625534 130.70986211 -84 130 C-76.02428538 127.89194075 -71.12957954 121.57219794 -67.0625 114.75 C-65.19729095 108.16690922 -64.69956845 101.0849303 -67.5 94.6875 C-70.97033531 88.77187504 -76.43834685 84.03372875 -83 82 C-93.89819188 80.88023357 -101.37076342 81.81941994 -108.875 89.9375 Z " fill="#009A93" transform="translate(748,90)"/>
<path d="M0 0 C1.06920181 -0.00551376 1.06920181 -0.00551376 2.16000366 -0.01113892 C4.20203042 -0.01665098 6.24321061 -0.00593157 8.28515625 0.01171875 C10.06418335 0.02464966 10.06418335 0.02464966 11.87915039 0.0378418 C14.79429002 0.29963888 16.47694701 0.78854216 18.9375 2.3125 C18.08478516 3.34697266 18.08478516 3.34697266 17.21484375 4.40234375 C16.44269531 5.34207031 15.67054688 6.28179687 14.875 7.25 C13.69265425 8.68700484 12.50905967 10.12309583 11.30908203 11.54541016 C9.85342599 13.35337307 9.85342599 13.35337307 8.51513672 15.63818359 C6.13775716 19.2937242 4.39274091 21.83167441 0.15405273 23.23217773 C-3.17945898 23.69920649 -6.44960291 23.92078578 -9.8125 24.0625 C-12.24172325 24.24985293 -14.67014973 24.44783018 -17.09765625 24.65625 C-18.87873779 24.80513672 -18.87873779 24.80513672 -20.69580078 24.95703125 C-47.308618 27.76691246 -71.95348139 42.29453465 -91.0625 60.3125 C-91.80113281 60.97507813 -92.53976563 61.63765625 -93.30078125 62.3203125 C-115.26440975 82.84050538 -128.30293463 115.06018276 -129.33984375 144.7734375 C-129.60360274 157.57830835 -129.20123781 169.87191573 -126.0625 182.3125 C-125.90152832 182.95622559 -125.74055664 183.59995117 -125.57470703 184.26318359 C-116.9942039 217.47245074 -95.70917592 245.05502375 -66.54492188 262.65625 C-61.25333941 265.75554033 -55.9335963 268.46856272 -50.0625 270.3125 C-49.81628906 269.63316406 -49.57007812 268.95382812 -49.31640625 268.25390625 C-47.81914055 264.74162877 -45.95311775 261.52087434 -44 258.25 C-43.57299805 257.5295752 -43.14599609 256.80915039 -42.70605469 256.06689453 C-36.28760072 245.27706089 -29.74155695 234.56300064 -23.2109375 223.84082031 C-21.14886903 220.4550954 -19.08980213 217.06755169 -17.03125 213.6796875 C-15.7917194 211.64059295 -14.55213874 209.60152882 -13.3125 207.5625 C-12.75272461 206.64130371 -12.19294922 205.72010742 -11.61621094 204.77099609 C-11.08801758 203.90297363 -10.55982422 203.03495117 -10.015625 202.140625 C-9.56348633 201.3971582 -9.11134766 200.65369141 -8.64550781 199.88769531 C-6.47104505 196.35033671 -4.263189 192.8336024 -2.0625 189.3125 C-39.0225 189.3125 -75.9825 189.3125 -114.0625 189.3125 C-112.14058786 185.46867572 -109.90646731 182.58000673 -107.125 179.375 C-106.13918489 178.22537876 -105.15351223 177.07563536 -104.16796875 175.92578125 C-103.40492432 175.03947021 -103.40492432 175.03947021 -102.62646484 174.13525391 C-100.04499569 171.12662938 -97.49298735 168.09319005 -94.9375 165.0625 C-90.21587776 159.46587776 -90.21587776 159.46587776 -89.0625 158.3125 C-86.94889683 158.21561269 -84.8319933 158.19063158 -82.71617126 158.19224548 C-82.04561425 158.19139106 -81.37505724 158.19053663 -80.68418032 158.18965632 C-78.42085602 158.18799963 -76.15760466 158.19352593 -73.89428711 158.19897461 C-72.27839662 158.19925647 -70.66250601 158.19909878 -69.0466156 158.1985321 C-64.6459776 158.19824407 -60.24536661 158.20414171 -55.84473491 158.21110606 C-51.2509479 158.21733866 -46.65716034 158.21794332 -42.06336975 158.21913147 C-33.35815229 158.22224506 -24.65294732 158.23045883 -15.94773537 158.24048096 C-6.03980082 158.25164123 3.86813431 158.25715233 13.77607358 158.26217639 C34.1632227 158.27264142 54.55036057 158.2902414 74.9375 158.3125 C73.59458754 161.08029864 72.25963344 163.29307912 70.21484375 165.59765625 C69.68109131 166.20488525 69.14733887 166.81211426 68.59741211 167.43774414 C68.02901611 168.07703857 67.46062012 168.71633301 66.875 169.375 C65.68630878 170.72812113 64.49881318 172.0822935 63.3125 173.4375 C62.73242188 174.10007813 62.15234375 174.76265625 61.5546875 175.4453125 C59.44436101 177.88187304 57.40307686 180.36972858 55.375 182.875 C51.96612853 187.08448715 48.47346636 191.21007094 44.9375 195.3125 C40.61571817 200.32836975 36.38270648 205.4042549 32.20703125 210.54296875 C27.39061061 216.42049411 22.442557 222.18861914 17.52148438 227.97851562 C12.8023039 233.53318034 8.09674951 239.09309925 3.5 244.75 C-0.45758188 249.61379025 -4.52792446 254.37131231 -8.62084961 259.12084961 C-11.65195289 262.64548919 -14.63235316 266.20289882 -17.5625 269.8125 C-20.99458013 274.0404248 -24.50801171 278.1877789 -28.0625 282.3125 C-32.38422863 287.32841689 -36.61729196 292.40425299 -40.79296875 297.54296875 C-45.60938939 303.42049411 -50.557443 309.18861914 -55.47851562 314.97851562 C-56.41782032 316.08411492 -57.35670581 317.19007051 -58.29516602 318.29638672 C-59.21644038 319.38227244 -60.13878806 320.46724855 -61.06225586 321.55126953 C-63.29295665 324.17926244 -65.48494901 326.82727508 -67.61328125 329.5390625 C-68.40089844 330.53679687 -69.18851562 331.53453125 -70 332.5625 C-70.68964844 333.45453125 -71.37929687 334.3465625 -72.08984375 335.265625 C-74.0625 337.3125 -74.0625 337.3125 -75.98828125 338.32421875 C-79.17068517 338.30623907 -80.80619356 336.75472983 -83.3125 334.875 C-84.20453125 334.21628906 -85.0965625 333.55757813 -86.015625 332.87890625 C-86.69109375 332.36199219 -87.3665625 331.84507812 -88.0625 331.3125 C-82.51170536 321.36588973 -76.64269625 311.63683903 -70.63623047 301.95874023 C-70.04471191 300.99782471 -69.45319336 300.03690918 -68.84375 299.046875 C-68.30814453 298.18288086 -67.77253906 297.31888672 -67.22070312 296.42871094 C-65.90246681 294.42216578 -65.90246681 294.42216578 -66.0625 292.3125 C-67.031875 291.91160156 -68.00125 291.51070313 -69 291.09765625 C-83.35883168 285.05287923 -96.76598822 277.95535726 -109.0625 268.3125 C-109.95195313 267.62671875 -110.84140625 266.9409375 -111.7578125 266.234375 C-142.27418879 242.06470945 -163.06085863 207.17518418 -167.78125 168.27734375 C-170.56771767 128.99588985 -161.18362457 91.18591478 -135.26953125 60.82421875 C-134.54121094 59.99535156 -133.81289062 59.16648438 -133.0625 58.3125 C-132.34449219 57.47332031 -131.62648437 56.63414063 -130.88671875 55.76953125 C-97.93313396 18.01631244 -49.27211044 0.12471859 0 0 Z " fill="#009A93" transform="translate(168.0625,34.6875)"/>
<path d="M0 0 C4.29183459 1.64557388 8.04580299 3.67400176 12 6 C11.42169797 10.49320305 9.68292817 13.56522349 7.32421875 17.40234375 C6.95778763 18.00252823 6.59135651 18.60271271 6.21382141 19.22108459 C5.04530464 21.13090561 3.86647202 23.03411973 2.6875 24.9375 C1.90624378 26.21248812 1.12563829 27.48787522 0.34570312 28.76367188 C-3.01191501 34.23990201 -6.41166354 39.6719553 -10 45 C-9.01902344 45.4846875 -8.03804687 45.969375 -7.02734375 46.46875 C-3.41729876 48.2579825 0.18395905 50.06418546 3.78076172 51.87988281 C5.18746809 52.58989039 6.59522238 53.29782869 8.00439453 54.00292969 C20.82502316 60.44773455 32.26221361 68.10409608 42.76953125 77.92578125 C44.81160319 79.82480087 46.91451582 81.59837655 49.0625 83.375 C54.02258227 87.70633945 57.98719721 92.80239779 62 98 C62.68191406 98.87785156 63.36382812 99.75570312 64.06640625 100.66015625 C87.1924161 131.38923783 97.11082845 169.49193751 91.7578125 207.6015625 C85.45270165 246.90638027 62.99864002 281.8730019 31.13623047 305.46191406 C9.56587209 320.99257209 -14.89157782 331.13703568 -41 336 C-42.00450195 336.18836426 -43.00900391 336.37672852 -44.04394531 336.57080078 C-54.33606269 338.27713342 -64.4713621 338.22921335 -74.875 338.125 C-76.64192196 338.11494039 -78.40884952 338.10581986 -80.17578125 338.09765625 C-84.45066254 338.07590126 -88.72526707 338.04153949 -93 338 C-93.33 337.34 -93.66 336.68 -94 336 C-93.14728516 334.96552734 -93.14728516 334.96552734 -92.27734375 333.91015625 C-91.50519531 332.97042969 -90.73304688 332.03070313 -89.9375 331.0625 C-88.75471806 329.62496502 -87.57056179 328.18842708 -86.36865234 326.7668457 C-84.91517908 324.96214382 -84.91517908 324.96214382 -83.60400391 322.67651367 C-81.18061809 318.90416255 -79.4306504 316.4551152 -75.05834961 315.06420898 C-71.52805603 314.57927429 -68.05993669 314.34081561 -64.5 314.1875 C-61.97332882 313.99778905 -59.44725426 313.79994679 -56.921875 313.59375 C-55.71853516 313.5009375 -54.51519531 313.408125 -53.27539062 313.3125 C-46.91151267 312.70533216 -41.04532008 311.06906182 -35 309 C-34.05954834 308.69304199 -34.05954834 308.69304199 -33.10009766 308.37988281 C-1.84672085 298.10290612 24.09468888 275.97780581 39.35107422 246.84375 C40.98621487 243.59998027 42.51683476 240.31567106 44 237 C44.48210937 235.92363281 44.96421875 234.84726563 45.4609375 233.73828125 C58.64635828 201.89349228 56.48116127 166.175991 43.50756836 134.74975586 C30.61913643 104.63396484 7.11348895 83.03452943 -22 69 C-23.485 68.505 -23.485 68.505 -25 68 C-25.2789209 68.73452393 -25.5578418 69.46904785 -25.84521484 70.22583008 C-26.90242418 72.76559112 -28.07695139 75.02334262 -29.4765625 77.38671875 C-30.22244629 78.64959717 -30.22244629 78.64959717 -30.98339844 79.93798828 C-31.52512695 80.84532715 -32.06685547 81.75266602 -32.625 82.6875 C-33.19766602 83.65155762 -33.77033203 84.61561523 -34.36035156 85.60888672 C-41.44233762 97.48632388 -48.74032953 109.23053423 -56 121 C-61.61 130.24 -67.22 139.48 -73 149 C-36.04 149 0.92 149 39 149 C37.05299826 152.89400347 34.75971214 155.81772609 31.9375 159.0625 C30.94579916 160.21674783 29.95492733 161.37170838 28.96484375 162.52734375 C28.46839355 163.10597168 27.97194336 163.68459961 27.46044922 164.28076172 C24.53679906 167.7224776 21.71116453 171.24388806 18.875 174.7578125 C17.946875 175.86769531 17.946875 175.86769531 17 177 C16.60218165 177.53380437 16.20436331 178.06760874 15.79448986 178.617589 C13.07232061 180.71465112 10.81349249 180.36855651 7.41316223 180.36076355 C6.74089637 180.36332682 6.06863051 180.3658901 5.37599295 180.36853105 C3.11866501 180.37348069 0.86200286 180.35695738 -1.39526367 180.34057617 C-3.01144902 180.33973015 -4.62763552 180.34020455 -6.24382019 180.34190369 C-10.63616501 180.34276604 -15.02826512 180.32510148 -19.42055297 180.30418181 C-24.00897854 180.28545501 -28.59740943 180.28366773 -33.18586731 180.28010559 C-41.87690001 180.27077336 -50.56781979 180.24614365 -59.25880271 180.21605712 C-69.15225943 180.18254975 -79.04572147 180.16603633 -88.93922079 180.15097082 C-109.29287694 180.11959511 -129.64643136 180.06681174 -150 180 C-148.65708754 177.23220136 -147.32213344 175.01942088 -145.27734375 172.71484375 C-144.74359131 172.10761475 -144.20983887 171.50038574 -143.65991211 170.87475586 C-143.09151611 170.23546143 -142.52312012 169.59616699 -141.9375 168.9375 C-140.74880878 167.58437887 -139.56131318 166.2302065 -138.375 164.875 C-137.79492188 164.21242187 -137.21484375 163.54984375 -136.6171875 162.8671875 C-134.50686101 160.43062696 -132.46557686 157.94277142 -130.4375 155.4375 C-127.02863012 151.22801481 -123.53600932 147.10239029 -120 143 C-116.44542508 138.875357 -112.93207702 134.72792096 -109.5 130.5 C-106.06791987 126.2720752 -102.55448829 122.1247211 -99 118 C-94.67827137 112.98408311 -90.44520804 107.90824701 -86.26953125 102.76953125 C-81.45311061 96.89200589 -76.505057 91.12388086 -71.58398438 85.33398438 C-66.8648039 79.77931966 -62.15924951 74.21940075 -57.5625 68.5625 C-53.60491812 63.69870975 -49.53457554 58.94118769 -45.44165039 54.19165039 C-42.41054711 50.66701081 -39.43014684 47.10960118 -36.5 43.5 C-33.06791987 39.2720752 -29.55448829 35.1247211 -26 31 C-21.6927486 26.00088579 -17.47219828 20.94347031 -13.3125 15.8203125 C-8.94234795 10.49049868 -4.46543508 5.2500162 0 0 Z " fill="#009A93" transform="translate(241,0)"/>
<path d="M0 0 C14.52 0 29.04 0 44 0 C44 50.49 44 100.98 44 153 C69.41 153 94.82 153 121 153 C121 165.87 121 178.74 121 192 C81.07 192 41.14 192 0 192 C0 128.64 0 65.28 0 0 Z " fill="#009A93" transform="translate(392,90)"/>
<path d="M0 0 C14.52 0 29.04 0 44 0 C44 11.55 44 23.1 44 35 C52.25 35 60.5 35 69 35 C69 44.9 69 54.8 69 65 C60.75 65 52.5 65 44 65 C44 107.24 44 149.48 44 193 C29.48 193 14.96 193 0 193 C0 150.76 0 108.52 0 65 C-8.25 65 -16.5 65 -25 65 C-25 55.1 -25 45.2 -25 35 C-16.75 35 -8.5 35 0 35 C0 23.45 0 11.9 0 0 Z " fill="#009A93" transform="translate(908,91)"/>
<path d="M0 0 C14.85 0 29.7 0 45 0 C45 45.87 45 91.74 45 139 C30.15 139 15.3 139 0 139 C0 93.13 0 47.26 0 0 Z " fill="#009A93" transform="translate(530,143)"/>
<path d="M0 0 C5.53911935 4.3959394 8.91398771 9.56280482 9.9609375 16.64453125 C11.05609416 37.62099339 11.05609416 37.62099339 4.3359375 46.39453125 C3.24869317 47.51575196 2.12207603 48.60002494 0.9609375 49.64453125 C0.4040625 50.15371094 -0.1528125 50.66289062 -0.7265625 51.1875 C-6.09917894 55.05448401 -11.70452224 55.1330265 -18.1015625 55.20703125 C-19.37797607 55.22914673 -19.37797607 55.22914673 -20.68017578 55.25170898 C-27.69125574 55.1382325 -32.90251736 53.33696381 -38.24609375 48.75 C-38.77589844 48.11707031 -39.30570313 47.48414063 -39.8515625 46.83203125 C-40.39425781 46.20683594 -40.93695312 45.58164062 -41.49609375 44.9375 C-45.85426898 38.46092061 -46.5937679 32.99762596 -46.5390625 25.33203125 C-46.53261719 24.39794434 -46.52617188 23.46385742 -46.51953125 22.50146484 C-46.27175533 13.18541639 -44.01742721 7.29176982 -37.3515625 0.70703125 C-26.41505996 -7.97663369 -11.37203004 -7.55956786 0 0 Z " fill="#FAFBFD" transform="translate(681.0390625,393.35546875)"/>
<path d="M0 0 C6.27 0 12.54 0 19 0 C23.29 13.53 27.58 27.06 32 41 C35.48667891 30.50056186 35.48667891 30.50056186 38.9699707 20 C39.41345339 18.66662647 39.85704963 17.33329071 40.30078125 16 C40.52294312 15.32839844 40.74510498 14.65679687 40.97399902 13.96484375 C42.54256134 9.25830662 44.25523501 4.65270663 46 0 C52.27 0 58.54 0 65 0 C65 19.47 65 38.94 65 59 C61.04 59 57.08 59 53 59 C52.505 38.21 52.505 38.21 52 17 C50.411875 21.723125 48.82375 26.44625 47.1875 31.3125 C46.6927417 32.77856689 46.1979834 34.24463379 45.68823242 35.75512695 C43.44002463 42.47157388 41.31335319 49.1779102 39.5715332 56.04760742 C39 58 39 58 38 59 C35.98035801 59.07244053 33.95832876 59.08377188 31.9375 59.0625 C30.83277344 59.05347656 29.72804688 59.04445313 28.58984375 59.03515625 C27.73519531 59.02355469 26.88054688 59.01195312 26 59 C24.6449765 54.98525893 23.29431171 50.9690828 21.94726562 46.95166016 C21.49071056 45.59190616 21.03306962 44.23251615 20.57421875 42.87353516 C19.90582046 40.89325864 19.24165603 38.91159951 18.578125 36.9296875 C18.18012695 35.74616699 17.78212891 34.56264648 17.37207031 33.34326172 C15.4528361 27.26796337 13.75031447 21.12610066 12 15 C11.67 29.19 11.34 43.38 11 58 C7.37 58 3.74 58 0 58 C0 38.86 0 19.72 0 0 Z " fill="#F7F8FC" transform="translate(710,389)"/>
<path d="M0 0 C14.85 0 29.7 0 45 0 C45 12.87 45 25.74 45 39 C30.15 39 15.3 39 0 39 C0 26.13 0 13.26 0 0 Z " fill="#009A93" transform="translate(530,90)"/>
<path d="M0 0 C-0.33 2.97 -0.66 5.94 -1 9 C-1.69351563 8.84144531 -2.38703125 8.68289063 -3.1015625 8.51953125 C-9.48946009 7.37453074 -17.16794271 6.51645834 -23.0625 9.6875 C-28.49476162 13.96396128 -31.3906266 18.11577987 -32.2578125 25.06640625 C-32.60191813 31.66176417 -30.99898249 37.6321587 -26.5390625 42.640625 C-20.86176931 47.655087 -15.19335816 47.27914524 -8 47 C-5.31164989 46.74931784 -2.67242266 46.39591447 0 46 C0 49.3 0 52.6 0 56 C-8.61456522 58.87152174 -22.6839557 58.83108442 -30.9375 55 C-37.43537281 50.8093429 -42.47049814 45.14162781 -44.56640625 37.6171875 C-46.34724604 26.86797433 -45.4529356 17.03911151 -39.5625 7.8125 C-30.78134696 -3.24688671 -12.19601167 -6.80707628 0 0 Z " fill="#F9FAFC" transform="translate(616,391)"/>
<path d="M0 0 C4.36386112 3.07453851 7.06592534 6.88527602 8.75 11.9375 C9.40025989 21.07865352 8.95301549 28.02620958 3.875 35.8125 C0.338782 39.348718 -2.80911788 40.05875865 -7.6875 40.3125 C-12.21688259 40.20699026 -14.76773086 38.92230212 -18.25 35.9375 C-23.6600812 30.14098443 -23.68549368 22.88570037 -23.56640625 15.359375 C-23.00430237 9.2803256 -21.05475034 5.6133396 -16.625 1.5 C-11.29520835 -2.00644188 -6.02834989 -1.9708067 0 0 Z " fill="#1369B1" transform="translate(670.25,399.0625)"/>
</svg>
