<svg width="157" height="75" viewBox="0 0 157 75" fill="none" xmlns="http://www.w3.org/2000/svg">
<path fill-rule="evenodd" clip-rule="evenodd" d="M70.0256 38.6391V14.2695H63.127V44.758H82.2635V38.6391H70.0256Z" fill="#3677E0"/>
<path d="M92.09 22.7812H85.1914V44.7529H92.09V22.7812Z" fill="#3677E0"/>
<path d="M92.09 14.2695H85.1914V20.3058H92.09V14.2695Z" fill="#3677E0"/>
<path fill-rule="evenodd" clip-rule="evenodd" d="M132.348 22.8101H126.713V14.2695H119.803V22.8101H104.848C96.9453 22.8101 95.0434 28.1022 95.0434 30.8073C95.0316 37.6114 103.844 38.3319 103.962 38.3673L104.281 38.391L99.0833 44.5808H99.296C100.548 44.5572 102.426 44.5572 104.635 44.5926C109.727 44.6871 111.002 46.0219 111.002 47.593C111.002 49.0696 109.101 50.3572 106.053 50.3572C102.391 50.3572 100.383 49.4476 100.383 47.7821V47.6048L94.0276 47.593C94.0039 47.7584 94.0039 47.9238 94.0039 48.0774C94.0039 50.9833 96.4845 54.4562 105.722 54.4562C112.821 54.4562 117.334 52.1645 117.334 47.0733C117.334 45.9747 117.003 44.2619 115.574 42.8326C114.841 42.0884 113.034 40.5999 107.317 40.3873C107.116 40.3755 106.939 40.3755 106.773 40.3637C106.773 40.3637 107.707 39.8203 108.167 39.5368C110.045 38.4146 112.125 37.5523 113.861 35.9103C115.078 34.7527 115.857 33.0517 115.857 31.1026C115.857 29.815 115.527 28.7754 114.759 27.4406H119.803V44.7698H126.713V27.4288H129.832C131.982 27.4288 133.411 28.7282 133.411 32.0121V44.7698H140.31V30.5355C140.31 24.5701 136.352 22.8101 132.348 22.8101ZM105.474 35.0953C103.289 35.0953 101.47 33.2879 101.47 31.138C101.47 28.9054 103.182 27.1335 105.474 27.1335C107.86 27.1335 109.431 28.8936 109.431 30.89C109.431 33.1934 107.671 35.0953 105.474 35.0953Z" fill="#3677E0"/>
<path fill-rule="evenodd" clip-rule="evenodd" d="M37.174 7.27657L37.5047 6.73323L40.9539 1.07496L39.1821 0L34.4688 5.61102L33.89 6.29617L33.3702 6.91038L31.303 9.36744L15.2969 28.4449H24.2863H41.2375L45.1947 23.7316H27.1568L35.1776 10.5369C38.0245 11.7181 40.5523 13.5255 42.5841 15.7699C42.714 15.9234 42.8558 16.077 42.9858 16.2306C43.4701 16.7976 43.919 17.4001 44.3443 18.0143C44.7695 18.6286 45.1593 19.2783 45.5137 19.9398C45.6318 20.1642 45.7381 20.3887 45.8562 20.6131C46.187 21.2864 46.4823 21.9952 46.7304 22.7157C46.9194 23.2591 47.0847 23.8025 47.2383 24.3695C47.3919 24.9247 47.51 25.4917 47.6045 26.0706C47.699 26.6494 47.7817 27.2282 47.8289 27.8188C47.8762 28.4094 47.9116 29.0119 47.9116 29.6144C47.9116 30.4176 47.8644 31.2091 47.7817 31.9887C47.7581 32.1777 47.7345 32.3785 47.7108 32.5675C47.5927 33.3354 47.4509 34.1032 47.2501 34.8355C47.1084 35.3907 46.943 35.9459 46.754 36.4775C46.5059 37.1981 46.2106 37.8951 45.8799 38.5684C45.5846 39.1708 45.2656 39.7496 44.9231 40.3285C44.4033 41.179 43.8245 41.994 43.1984 42.75C42.7731 43.258 42.3361 43.7541 41.8635 44.2148C41.1666 44.9118 40.4106 45.5615 39.6192 46.1639C38.8277 46.7546 37.989 47.2979 37.1031 47.7704C36.8078 47.9358 36.5124 48.0894 36.2171 48.2311C35.8746 48.3965 35.532 48.55 35.1894 48.6918C34.6697 48.9162 34.1381 49.1052 33.5947 49.2824C32.8741 49.5187 32.1299 49.7077 31.3739 49.8613C30.8069 49.9794 30.2281 50.0621 29.6493 50.133C28.8697 50.2275 28.0782 50.2629 27.2749 50.2629C27.1568 50.2629 27.0269 50.2629 26.9087 50.2511L24.688 52.8971L24.1564 53.5232C25.1841 53.6295 26.2236 53.6886 27.2749 53.6886C41.9108 53.6886 53.7707 42.9036 53.7707 29.5907C53.7471 19.5145 46.8958 10.8558 37.174 7.27657Z" fill="#3677E0"/>
<path fill-rule="evenodd" clip-rule="evenodd" d="M30.2283 30.8063H13.277L9.31983 35.5195H27.3695L19.337 48.7142C17.5887 47.9819 15.9585 47.0251 14.482 45.8674C13.9976 45.4776 13.5251 45.0759 13.0763 44.6507C12.7101 44.3081 12.3675 43.9538 12.0249 43.5876C11.0208 42.489 10.1231 41.2722 9.37888 39.9728C9.00088 39.3231 8.65831 38.6499 8.35118 37.9529C7.79599 36.6771 7.35896 35.3423 7.06364 33.9602C6.99277 33.6177 6.92185 33.2633 6.8746 32.9089C6.81554 32.5545 6.76829 32.2002 6.73285 31.834C6.66198 31.1134 6.61476 30.381 6.61476 29.6486C6.61476 28.7626 6.67377 27.8767 6.78008 27.0144C6.8037 26.8017 6.83916 26.5891 6.8746 26.3765C6.94548 25.9513 7.01637 25.526 7.11087 25.1126C7.29987 24.2739 7.5361 23.4588 7.8196 22.6673C8.17398 21.6751 8.61108 20.7183 9.10721 19.8087C9.42615 19.218 9.76873 18.651 10.1467 18.1077C10.8909 17.0091 11.7296 15.9813 12.6747 15.0481C16.4075 11.3153 21.5814 9.00006 27.2751 9.00006C27.405 9.00006 27.5232 9.00006 27.6413 9.00006L30.3937 5.7161C29.366 5.60979 28.3264 5.55078 27.2751 5.55078C12.6392 5.55078 0.779297 16.3357 0.779297 29.6368C0.779297 39.7602 7.64243 48.4189 17.3643 51.9864L17.0335 52.5297L13.5842 58.1998L15.3561 59.2866L20.0693 53.6637L20.6482 52.9786L21.1679 52.3644L23.2351 49.9073L39.2413 30.8298H30.2283V30.8063Z" fill="#3677E0"/>
<path fill-rule="evenodd" clip-rule="evenodd" d="M156.222 20.0677H152.229V14.5039H145.319V20.0677H141.326V24.6865H145.319V44.9924H152.229V24.6865H156.222V20.0677Z" fill="#3677E0"/>
<path d="M152.099 58.0586H62.9609V74.9979H152.099V58.0586Z" fill="#3677E0"/>
<path d="M98.7066 69.495C98.5531 69.5658 98.3759 69.6367 98.1515 69.6958C97.927 69.7548 97.6907 69.8021 97.4427 69.8375C97.1828 69.8729 96.9348 69.8847 96.6867 69.8847C96.1906 69.8847 95.7535 69.8021 95.3637 69.6367C94.9739 69.4713 94.6431 69.2469 94.3832 68.9515C94.1115 68.6562 93.9107 68.3018 93.7689 67.912C93.6272 67.5104 93.5563 67.0733 93.5563 66.6008C93.5563 66.1283 93.6272 65.6795 93.7689 65.2778C93.9107 64.8762 94.1115 64.5218 94.3832 64.2147C94.6549 63.9075 94.9739 63.6713 95.3637 63.5059C95.7417 63.3405 96.1787 63.2578 96.6512 63.246C96.8757 63.246 97.0883 63.2579 97.3127 63.2815C97.5254 63.3051 97.7498 63.3642 97.9743 63.4351C98.1987 63.5059 98.4232 63.6123 98.6594 63.7422L98.7893 62.1829C98.5649 62.1002 98.3287 62.0175 98.0806 61.9585C97.8325 61.8994 97.5962 61.8639 97.36 61.8285C97.1237 61.8048 96.8993 61.7931 96.6985 61.7931C95.9188 61.7931 95.2101 61.8994 94.584 62.1238C93.958 62.3364 93.4264 62.6554 92.9893 63.0807C92.5523 63.5059 92.2097 64.0139 91.9852 64.6281C91.749 65.2424 91.6427 65.9393 91.6309 66.7308C91.6309 67.5104 91.7608 68.1955 91.997 68.7743C92.2451 69.3531 92.5877 69.8375 93.0366 70.2155C93.4855 70.5935 94.017 70.877 94.6431 71.066C95.2573 71.255 95.9425 71.3496 96.6985 71.3496C97.0528 71.3496 97.4073 71.3141 97.7616 71.2669C98.116 71.2078 98.4704 71.1487 98.8012 71.066L98.7066 69.495ZM101.731 66.53C101.731 67.2387 101.825 67.8884 102.026 68.479C102.215 69.0696 102.51 69.5658 102.888 69.9911C103.266 70.4163 103.739 70.747 104.306 70.9833C104.873 71.2195 105.523 71.3377 106.267 71.3377C106.999 71.3377 107.649 71.2195 108.204 70.9833C108.771 70.747 109.244 70.4163 109.622 69.9911C110 69.5658 110.295 69.0579 110.496 68.4673C110.697 67.8884 110.791 67.2387 110.791 66.5418C110.791 65.8448 110.685 65.1951 110.496 64.6163C110.295 64.0375 110.011 63.5413 109.622 63.1161C109.232 62.6908 108.759 62.3719 108.204 62.1356C107.649 61.9112 106.999 61.7931 106.279 61.7812C105.546 61.7812 104.896 61.8994 104.329 62.1238C103.762 62.3482 103.29 62.6672 102.912 63.0924C102.534 63.5177 102.239 64.0138 102.038 64.5927C101.837 65.1715 101.731 65.8212 101.731 66.53ZM103.668 66.53C103.668 66.1992 103.703 65.8803 103.762 65.5613C103.822 65.2424 103.916 64.947 104.058 64.6635C104.188 64.38 104.353 64.132 104.566 63.9193C104.767 63.7067 105.015 63.5413 105.298 63.4114C105.582 63.2933 105.912 63.2224 106.279 63.2224C106.645 63.2224 106.975 63.2815 107.259 63.4114C107.542 63.5295 107.791 63.7067 107.991 63.9193C108.192 64.132 108.369 64.38 108.499 64.6635C108.629 64.947 108.724 65.2424 108.795 65.5613C108.854 65.8803 108.889 66.1992 108.889 66.53C108.889 66.8607 108.866 67.1914 108.806 67.5222C108.747 67.8411 108.653 68.1483 108.523 68.4318C108.393 68.7153 108.228 68.9634 108.027 69.176C107.826 69.3886 107.578 69.5658 107.294 69.6839C107.011 69.8021 106.68 69.873 106.302 69.873C105.924 69.873 105.593 69.8139 105.31 69.6839C105.026 69.5658 104.778 69.3886 104.578 69.176C104.377 68.9634 104.211 68.7153 104.081 68.4318C103.951 68.1483 103.857 67.8411 103.798 67.5222C103.692 67.1914 103.668 66.8607 103.668 66.53ZM113.721 71.1723H115.492V63.5768L115.516 63.5531L118.009 71.1723H119.78L122.273 63.5531H122.297V71.1723H124.068V61.9348H121.103L118.906 68.9397H118.883L116.686 61.9348H113.721V71.1723Z" fill="white"/>
</svg>
