<svg width="24" height="24" viewBox="0 0 24 24" fill="none" xmlns="http://www.w3.org/2000/svg">
<path d="M5.625 21.995C4.89714 21.995 4.27867 21.7403 3.76929 21.2307C3.25973 20.7213 3.005 20.1029 3.005 19.375V16.005H6V16H6.005V2.005H20.995V19.375C20.995 20.1029 20.7403 20.7213 20.231 21.2307C19.7214 21.7403 19.1029 21.995 18.375 21.995H5.625ZM18.3727 20.505C18.6922 20.505 18.9609 20.3967 19.1785 20.18C19.3962 19.9634 19.505 19.6949 19.505 19.375V3.5H19.5V3.495H7.5V3.5H7.495V16H7.5V16.005H17.245V19.375C17.245 19.6949 17.3531 19.9634 17.5692 20.18C17.7854 20.3967 18.0533 20.505 18.3727 20.505ZM9.005 7.995V6.505H17.995V7.995H9.005ZM9.005 10.995V9.505H17.995V10.995H9.005ZM15.755 20.5V17.5H15.75V17.495H4.5V17.5H4.495V19.375C4.495 19.6949 4.60382 19.9634 4.82147 20.18C5.0009 20.3586 5.20889 20.4637 5.44531 20.495H4.5V20.5V20.505H5.6H15.75V20.5H15.755Z" fill="white" stroke="white" stroke-width="0.01"/>
</svg>
