<svg width="24" height="24" viewBox="0 0 24 24" fill="none" xmlns="http://www.w3.org/2000/svg">
<path d="M12.75 17.975H12.745V18.97H11.255V17.975H11.25V17.97H9.005V16.48H13.5V16.475H13.505V14.725H13.5V14.72H9.75C9.53876 14.72 9.36197 14.6486 9.21929 14.5057C9.07644 14.363 9.005 14.1862 9.005 13.975V10.725C9.005 10.5138 9.07644 10.3369 9.21929 10.194C9.36197 10.0514 9.53876 9.98 9.75 9.98H11.25V9.975H11.255V8.98H12.745V9.975H12.75V9.98H14.995V11.47H10.5V11.475H10.495V13.225H10.5V13.23H14.25C14.4612 13.23 14.6381 13.3014 14.781 13.444C14.9236 13.5869 14.995 13.7638 14.995 13.975V17.225C14.995 17.4362 14.9236 17.613 14.781 17.7557C14.6381 17.8986 14.4612 17.97 14.25 17.97H12.75V17.975ZM5.5 21.995C5.10141 21.995 4.75266 21.8456 4.45354 21.5465C4.15441 21.2473 4.005 20.8986 4.005 20.5V3.5C4.005 3.10141 4.15441 2.75266 4.45354 2.45354C4.75266 2.15441 5.10141 2.005 5.5 2.005H14.5229L19.995 7.47707V20.5C19.995 20.8986 19.8456 21.2473 19.5465 21.5465C19.2473 21.8456 18.8986 21.995 18.5 21.995H5.5ZM13.28 7.47V3.5H13.275V3.495H5.5V3.5H5.495V20.5H5.5V20.505H18.5V20.5H18.505V7.475H18.5V7.47H13.28Z" fill="white" stroke="white" stroke-width="0.01"/>
</svg>
