<svg width="12" height="21" viewBox="0 0 12 21" fill="none" xmlns="http://www.w3.org/2000/svg">
<mask id="path-1-inside-1_4182_5410" fill="white">
<path d="M1.60312 20.9502L0.203125 19.5252L8.77812 10.9502L0.203125 2.3752L1.60312 0.950195L11.6031 10.9502L1.60312 20.9502Z"/>
</mask>
<path d="M1.60312 20.9502L0.203125 19.5252L8.77812 10.9502L0.203125 2.3752L1.60312 0.950195L11.6031 10.9502L1.60312 20.9502Z" fill="#5F6368"/>
<path d="M1.60312 20.9502L0.176452 22.3518L1.59055 23.7912L3.01734 22.3644L1.60312 20.9502ZM0.203125 19.5252L-1.21109 18.111L-2.61284 19.5127L-1.22355 20.9268L0.203125 19.5252ZM8.77812 10.9502L10.1923 12.3644L11.6066 10.9502L10.1923 9.53598L8.77812 10.9502ZM0.203125 2.3752L-1.22355 0.973552L-2.61284 2.38766L-1.21109 3.78941L0.203125 2.3752ZM1.60312 0.950195L3.01734 -0.464018L1.59055 -1.8908L0.176452 -0.451448L1.60312 0.950195ZM11.6031 10.9502L13.0173 12.3644L14.4316 10.9502L13.0173 9.53598L11.6031 10.9502ZM3.0298 19.5486L1.6298 18.1236L-1.22355 20.9268L0.176452 22.3518L3.0298 19.5486ZM1.61734 20.9394L10.1923 12.3644L7.36391 9.53598L-1.21109 18.111L1.61734 20.9394ZM10.1923 9.53598L1.61734 0.960982L-1.21109 3.78941L7.36391 12.3644L10.1923 9.53598ZM1.6298 3.77684L3.0298 2.35184L0.176452 -0.451448L-1.22355 0.973552L1.6298 3.77684ZM0.188911 2.36441L10.1889 12.3644L13.0173 9.53598L3.01734 -0.464018L0.188911 2.36441ZM10.1889 9.53598L0.188911 19.536L3.01734 22.3644L13.0173 12.3644L10.1889 9.53598Z" fill="#797979" mask="url(#path-1-inside-1_4182_5410)"/>
</svg>
