<svg width="20" height="20" viewBox="0 0 20 20" fill="none" xmlns="http://www.w3.org/2000/svg">
<mask id="path-1-inside-1_3648_10857" fill="white">
<path d="M5.70703 10.6247L10.8737 15.7913L9.9987 16.6663L3.33203 9.99967L9.9987 3.33301L10.8737 4.20801L5.70703 9.37467H16.6654V10.6247H5.70703Z"/>
</mask>
<path d="M5.70703 10.6247L10.8737 15.7913L9.9987 16.6663L3.33203 9.99967L9.9987 3.33301L10.8737 4.20801L5.70703 9.37467H16.6654V10.6247H5.70703Z" fill="#5F6368"/>
<path d="M5.70703 10.6247V8.62467H0.878604L4.29282 12.0389L5.70703 10.6247ZM10.8737 15.7913L12.2879 17.2056L13.7021 15.7913L12.2879 14.3771L10.8737 15.7913ZM9.9987 16.6663L8.58448 18.0806L9.9987 19.4948L11.4129 18.0806L9.9987 16.6663ZM3.33203 9.99967L1.91782 8.58546L0.503604 9.99967L1.91782 11.4139L3.33203 9.99967ZM9.9987 3.33301L11.4129 1.91879L9.9987 0.504581L8.58448 1.91879L9.9987 3.33301ZM10.8737 4.20801L12.2879 5.62222L13.7021 4.20801L12.2879 2.79379L10.8737 4.20801ZM5.70703 9.37467L4.29282 7.96046L0.878604 11.3747H5.70703V9.37467ZM16.6654 9.37467H18.6654V7.37467H16.6654V9.37467ZM16.6654 10.6247V12.6247H18.6654V10.6247H16.6654ZM4.29282 12.0389L9.45948 17.2056L12.2879 14.3771L7.12124 9.21046L4.29282 12.0389ZM9.45948 14.3771L8.58448 15.2521L11.4129 18.0806L12.2879 17.2056L9.45948 14.3771ZM11.4129 15.2521L4.74624 8.58546L1.91782 11.4139L8.58448 18.0806L11.4129 15.2521ZM4.74624 11.4139L11.4129 4.74722L8.58448 1.91879L1.91782 8.58546L4.74624 11.4139ZM8.58448 4.74722L9.45948 5.62222L12.2879 2.79379L11.4129 1.91879L8.58448 4.74722ZM9.45948 2.79379L4.29282 7.96046L7.12124 10.7889L12.2879 5.62222L9.45948 2.79379ZM5.70703 11.3747H16.6654V7.37467H5.70703V11.3747ZM14.6654 9.37467V10.6247H18.6654V9.37467H14.6654ZM16.6654 8.62467H5.70703V12.6247H16.6654V8.62467Z" fill="#1E293B" mask="url(#path-1-inside-1_3648_10857)"/>
</svg>
