<svg width="36" height="40" viewBox="0 0 36 40" fill="none" xmlns="http://www.w3.org/2000/svg">
<path d="M23.841 33C22.4803 33 21.3333 32.5303 20.4 31.591C19.4667 30.6513 19 29.5013 19 28.141C19 26.7803 19.4697 25.6333 20.409 24.7C21.3487 23.7667 22.4987 23.3 23.859 23.3C25.2197 23.3 26.3667 23.7697 27.3 24.709C28.2333 25.6487 28.7 26.7987 28.7 28.159C28.7 29.5197 28.2303 30.6667 27.291 31.6C26.3513 32.5333 25.2013 33 23.841 33ZM3 40C2.2 40 1.5 39.7 0.9 39.1C0.3 38.5 0 37.8 0 37V6C0 5.2 0.3 4.5 0.9 3.9C1.5 3.3 2.2 3 3 3H6.25V0H9.5V3H26.5V0H29.75V3H33C33.8 3 34.5 3.3 35.1 3.9C35.7 4.5 36 5.2 36 6V37C36 37.8 35.7 38.5 35.1 39.1C34.5 39.7 33.8 40 33 40H3ZM3 37H33V15.5H3V37ZM3 12.5H33V6H3V12.5Z" fill="#F7A600"/>
</svg>
