<svg width="64" height="63" viewBox="0 0 64 63" fill="none" xmlns="http://www.w3.org/2000/svg">
<path d="M27.3906 45.7187L49.5 23.6094L45.9062 20.0937L27.3906 38.6094L18.0156 29.2344L14.5 32.75L27.3906 45.7187ZM32 62.75C27.7292 62.75 23.6927 61.9297 19.8906 60.289C16.0885 58.6484 12.7682 56.4088 9.92968 53.5703C7.09114 50.7317 4.85156 47.4114 3.21094 43.6093C1.57031 39.8073 0.75 35.7708 0.75 31.5C0.75 27.1771 1.57031 23.1146 3.21094 19.3125C4.85156 15.5104 7.09114 12.2031 9.92968 9.39062C12.7682 6.57812 16.0885 4.35156 19.8906 2.71094C23.6927 1.07031 27.7292 0.25 32 0.25C36.3229 0.25 40.3854 1.07031 44.1875 2.71094C47.9896 4.35156 51.2968 6.57812 54.1093 9.39062C56.9218 12.2031 59.1484 15.5104 60.789 19.3125C62.4297 23.1146 63.25 27.1771 63.25 31.5C63.25 35.7708 62.4297 39.8073 60.789 43.6093C59.1484 47.4114 56.9218 50.7317 54.1093 53.5703C51.2968 56.4088 47.9896 58.6484 44.1875 60.289C40.3854 61.9297 36.3229 62.75 32 62.75ZM32 58.0625C39.3958 58.0625 45.6718 55.4713 50.8281 50.289C55.9843 45.1067 58.5625 38.8437 58.5625 31.5C58.5625 24.1042 55.9843 17.8281 50.8281 12.6719C45.6718 7.51562 39.3958 4.9375 32 4.9375C24.6562 4.9375 18.3932 7.51562 13.2109 12.6719C8.02864 17.8281 5.4375 24.1042 5.4375 31.5C5.4375 38.8437 8.02864 45.1067 13.2109 50.289C18.3932 55.4713 24.6562 58.0625 32 58.0625Z" fill="#F7A600"/>
</svg>
