<svg width="32" height="40" viewBox="0 0 32 40" fill="none" xmlns="http://www.w3.org/2000/svg">
<path d="M16.0045 19.5C16.9682 19.5 17.7917 19.1568 18.475 18.4705C19.1583 17.7842 19.5 16.9592 19.5 15.9955C19.5 15.0318 19.1568 14.2083 18.4705 13.525C17.7842 12.8417 16.9592 12.5 15.9955 12.5C15.0318 12.5 14.2083 12.8432 13.525 13.5295C12.8417 14.2158 12.5 15.0408 12.5 16.0045C12.5 16.9682 12.8432 17.7917 13.5295 18.475C14.2158 19.1583 15.0408 19.5 16.0045 19.5ZM16 36.05C20.4333 32.0167 23.7083 28.3583 25.825 25.075C27.9417 21.7917 29 18.9 29 16.4C29 12.4737 27.7452 9.25867 25.2355 6.755C22.7258 4.25167 19.6473 3 16 3C12.3527 3 9.27417 4.25167 6.7645 6.755C4.25483 9.25867 3 12.4737 3 16.4C3 18.9 4.08333 21.7917 6.25 25.075C8.41667 28.3583 11.6667 32.0167 16 36.05ZM16 40C10.6333 35.4333 6.625 31.1917 3.975 27.275C1.325 23.3583 0 19.7333 0 16.4C0 11.4 1.60833 7.41667 4.825 4.45C8.04167 1.48333 11.7667 0 16 0C20.2333 0 23.9583 1.48333 27.175 4.45C30.3917 7.41667 32 11.4 32 16.4C32 19.7333 30.675 23.3583 28.025 27.275C25.375 31.1917 21.3667 35.4333 16 40Z" fill="#F7A600"/>
</svg>
