<svg width="24" height="24" viewBox="0 0 24 24" fill="none" xmlns="http://www.w3.org/2000/svg">
<path d="M15.825 22L11.8 17.975L12.875 16.9L15.825 19.85L21.925 13.75L23 14.825L15.825 22ZM11.95 10.825L20.3 5.5H3.6L11.95 10.825ZM11.95 12.325L3.5 6.9V18.2H9.9L11.4 19.7H3.5C3.1 19.7 2.75 19.55 2.45 19.25C2.15 18.95 2 18.6 2 18.2V5.5C2 5.1 2.15 4.75 2.45 4.45C2.75 4.15 3.1 4 3.5 4H20.425C20.825 4 21.175 4.15 21.475 4.45C21.775 4.75 21.925 5.1 21.925 5.5V11.6L20.425 13.1V6.9L11.95 12.325Z" fill="#3677E0"/>
</svg>
