<svg width="16" height="16" viewBox="0 0 16 16" fill="none" xmlns="http://www.w3.org/2000/svg">
<g clip-path="url(#clip0_7_677)">
<path opacity="0.3" d="M4.21517 11.7821C3.79758 11.3645 3.79758 10.6874 4.21517 10.2698L10.2649 4.22005C10.6825 3.80246 11.3597 3.80246 11.7773 4.22005C12.1948 4.63764 12.1948 5.31483 11.7773 5.73242L5.72754 11.7821C5.30995 12.1997 4.63276 12.1997 4.21517 11.7821Z" fill="#3677E0"/>
<path d="M10.2686 11.4472C10.2581 11.8796 10.6001 12.2216 11.0325 12.2111C11.465 12.2007 11.8242 11.8414 11.8347 11.409L11.9968 4.76524C12.007 4.3462 11.6852 4.0093 11.2669 4.00128L4.90674 3.87975C4.47505 3.87148 4.10146 4.21543 4.07205 4.64784C4.04264 5.08026 4.36883 5.43757 4.80052 5.44584L10.4127 5.55303L10.2691 11.4472L10.2686 11.4472Z" fill="#3677E0"/>
</g>
<defs>
<clipPath id="clip0_7_677">
<rect width="11" height="11" fill="white" transform="translate(0.220215 8) rotate(-45)"/>
</clipPath>
</defs>
</svg>
