<svg width="90" height="44" viewBox="0 0 90 44" fill="none" xmlns="http://www.w3.org/2000/svg">
<path fill-rule="evenodd" clip-rule="evenodd" d="M40.0919 22.6595V8.5498H36.0977V26.2024H47.1775V22.6595H40.0919Z" fill="white"/>
<path d="M52.8692 13.4814H48.875V26.2028H52.8692V13.4814Z" fill="white"/>
<path d="M52.8692 8.5498H48.875V12.0447H52.8692V8.5498Z" fill="white"/>
<path fill-rule="evenodd" clip-rule="evenodd" d="M76.1773 13.4947H72.9149V8.5498H68.9138V13.4947H60.2551C55.6796 13.4947 54.5784 16.5588 54.5784 18.125C54.5716 22.0645 59.6738 22.4817 59.7422 22.5022L59.9269 22.5159L56.9175 26.0997H57.0406C57.7656 26.0861 58.8531 26.0861 60.132 26.1066C63.0798 26.1613 63.8185 26.9342 63.8185 27.8438C63.8185 28.6987 62.7174 29.4442 60.9528 29.4442C58.8326 29.4442 57.6699 28.9176 57.6699 27.9532V27.8506L53.9903 27.8438C53.9766 27.9395 53.9766 28.0353 53.9766 28.1242C53.9766 29.8067 55.4128 31.8175 60.7613 31.8175C64.8718 31.8175 67.4844 30.4907 67.4844 27.5429C67.4844 26.9068 67.2929 25.9151 66.4654 25.0875C66.0413 24.6566 64.9949 23.7949 61.6846 23.6718C61.5683 23.6649 61.4657 23.6649 61.37 23.6581C61.37 23.6581 61.9103 23.3434 62.177 23.1793C63.2645 22.5296 64.4682 22.0303 65.4736 21.0796C66.1781 20.4094 66.6295 19.4245 66.6295 18.296C66.6295 17.5505 66.438 16.9486 65.9934 16.1757H68.9138V26.2092H72.9149V16.1689H74.7205C75.9653 16.1689 76.7929 16.9212 76.7929 18.8226V26.2092H80.7871V17.9677C80.7871 14.5138 78.4959 13.4947 76.1773 13.4947ZM60.6177 20.6077C59.3524 20.6077 58.2991 19.5613 58.2991 18.3165C58.2991 17.0238 59.2908 15.9979 60.6177 15.9979C61.9992 15.9979 62.9088 17.017 62.9088 18.1729C62.9088 19.5066 61.8898 20.6077 60.6177 20.6077Z" fill="white"/>
<path fill-rule="evenodd" clip-rule="evenodd" d="M21.0729 4.50115L21.2644 4.18657L23.2615 0.910476L22.2355 0.288086L19.5066 3.53681L19.1715 3.93351L18.8706 4.28913L17.6737 5.71174L8.40625 16.7574H13.611H23.4256L25.7168 14.0285H15.273L19.917 6.38884C21.5653 7.07278 23.0289 8.11921 24.2053 9.4187C24.2805 9.50761 24.3626 9.59653 24.4379 9.68545C24.7183 10.0137 24.9782 10.3626 25.2244 10.7182C25.4706 11.0739 25.6963 11.45 25.9015 11.833C25.9699 11.963 26.0314 12.0929 26.0998 12.2229C26.2913 12.6127 26.4623 13.0231 26.6059 13.4403C26.7154 13.7549 26.8111 14.0695 26.9 14.3978C26.9889 14.7193 27.0573 15.0476 27.1121 15.3827C27.1668 15.7178 27.2147 16.0529 27.242 16.3949C27.2694 16.7369 27.2899 17.0857 27.2899 17.4345C27.2899 17.8996 27.2625 18.3579 27.2147 18.8093C27.201 18.9187 27.1873 19.035 27.1736 19.1444C27.1052 19.5889 27.0232 20.0335 26.9069 20.4575C26.8248 20.779 26.7291 21.1005 26.6196 21.4082C26.476 21.8254 26.305 22.229 26.1135 22.6188C25.9425 22.9676 25.7579 23.3028 25.5595 23.6379C25.2586 24.1303 24.9235 24.6022 24.561 25.04C24.3147 25.3341 24.0617 25.6213 23.7881 25.888C23.3846 26.2916 22.9469 26.6678 22.4886 27.0166C22.0304 27.3585 21.5448 27.6731 21.0318 27.9467C20.8609 28.0425 20.6899 28.1314 20.5189 28.2135C20.3205 28.3092 20.1222 28.3981 19.9239 28.4802C19.6229 28.6101 19.3151 28.7196 19.0005 28.8221C18.5833 28.9589 18.1524 29.0684 17.7147 29.1573C17.3864 29.2257 17.0513 29.2736 16.7162 29.3146C16.2648 29.3693 15.8065 29.3898 15.3414 29.3898C15.273 29.3898 15.1978 29.3898 15.1294 29.383L13.8436 30.915L13.5358 31.2775C14.1308 31.3391 14.7327 31.3733 15.3414 31.3733C23.8155 31.3733 30.6823 25.1289 30.6823 17.4208C30.6686 11.5868 26.7017 6.5735 21.0729 4.50115Z" fill="white"/>
<path fill-rule="evenodd" clip-rule="evenodd" d="M17.0507 18.1251H7.23608L4.94489 20.8541H15.3955L10.7447 28.4937C9.73247 28.0696 8.78864 27.5157 7.93372 26.8454C7.6533 26.6197 7.37972 26.3871 7.11982 26.1409C6.9078 25.9426 6.70945 25.7374 6.5111 25.5254C5.92975 24.8893 5.40996 24.1848 4.97908 23.4325C4.76022 23.0563 4.56188 22.6665 4.38405 22.263C4.0626 21.5243 3.80956 20.7515 3.63858 19.9512C3.59754 19.7529 3.55648 19.5477 3.52912 19.3425C3.49493 19.1373 3.46757 18.9322 3.44705 18.7202C3.40602 18.303 3.37868 17.8789 3.37868 17.4548C3.37868 16.9419 3.41284 16.4289 3.4744 15.9297C3.48808 15.8066 3.50861 15.6835 3.52912 15.5603C3.57016 15.3141 3.61121 15.0679 3.66592 14.8285C3.77535 14.3429 3.91212 13.871 4.07627 13.4128C4.28145 12.8382 4.53453 12.2843 4.82179 11.7576C5.00645 11.4157 5.2048 11.0874 5.42366 10.7728C5.85454 10.1367 6.34015 9.54164 6.88731 9.00132C9.04856 6.84007 12.0442 5.49954 15.3408 5.49954C15.4161 5.49954 15.4845 5.49954 15.5528 5.49954L17.1464 3.59816C16.5514 3.53661 15.9495 3.50244 15.3408 3.50244C6.86678 3.50244 0 9.7468 0 17.448C0 23.3094 3.97369 28.3227 9.60254 30.3882L9.41101 30.7028L7.41391 33.9858L8.43983 34.615L11.1687 31.3594L11.5039 30.9627L11.8048 30.6071L13.0017 29.1845L22.2692 18.1388H17.0507V18.1251Z" fill="white"/>
<path fill-rule="evenodd" clip-rule="evenodd" d="M89.9995 11.9084H87.6878V8.68701H83.6867V11.9084H81.375V14.5826H83.6867V26.3396H87.6878V14.5826H89.9995V11.9084Z" fill="white"/>
<path d="M87.6123 33.9038H36.002V43.7115H87.6123V33.9038Z" fill="#0071CE"/>
<path d="M56.6984 40.5243C56.6095 40.5653 56.5069 40.6063 56.3769 40.6405C56.247 40.6747 56.1102 40.7021 55.9665 40.7226C55.8161 40.7431 55.6725 40.7499 55.5289 40.7499C55.2416 40.7499 54.9885 40.7021 54.7628 40.6063C54.5371 40.5106 54.3456 40.3806 54.1952 40.2096C54.0379 40.0387 53.9216 39.8335 53.8395 39.6078C53.7574 39.3752 53.7164 39.1222 53.7164 38.8486C53.7164 38.575 53.7574 38.3151 53.8395 38.0826C53.9216 37.85 54.0379 37.6449 54.1952 37.467C54.3525 37.2892 54.5371 37.1524 54.7628 37.0567C54.9817 36.9609 55.2347 36.913 55.5083 36.9062C55.6383 36.9062 55.7614 36.913 55.8913 36.9267C56.0144 36.9404 56.1444 36.9746 56.2743 37.0156C56.4043 37.0567 56.5342 37.1182 56.671 37.1935L56.7463 36.2907C56.6163 36.2428 56.4795 36.1949 56.3359 36.1607C56.1923 36.1265 56.0555 36.106 55.9187 36.0854C55.7819 36.0718 55.6519 36.065 55.5357 36.065C55.0843 36.065 54.6739 36.1265 54.3114 36.2564C53.9489 36.3795 53.6412 36.5642 53.3881 36.8105C53.1351 37.0567 52.9367 37.3508 52.8067 37.7064C52.6699 38.0621 52.6084 38.4656 52.6016 38.9238C52.6016 39.3752 52.6768 39.7719 52.8136 40.107C52.9572 40.4422 53.1556 40.7226 53.4155 40.9415C53.6754 41.1603 53.9831 41.3245 54.3456 41.4339C54.7013 41.5433 55.0979 41.5981 55.5357 41.5981C55.7408 41.5981 55.946 41.5775 56.1512 41.5502C56.3564 41.516 56.5616 41.4818 56.7531 41.4339L56.6984 40.5243ZM58.4493 38.8076C58.4493 39.2179 58.504 39.5941 58.6202 39.936C58.7297 40.278 58.9007 40.5653 59.1196 40.8115C59.3384 41.0577 59.612 41.2492 59.9403 41.386C60.2685 41.5228 60.6447 41.5912 61.0756 41.5912C61.4997 41.5912 61.8758 41.5228 62.1973 41.386C62.5256 41.2492 62.7991 41.0577 63.018 40.8115C63.2369 40.5653 63.4079 40.2712 63.5241 39.9292C63.6404 39.5941 63.6951 39.2179 63.6951 38.8144C63.6951 38.4109 63.6336 38.0347 63.5241 37.6996C63.4079 37.3645 63.2437 37.0772 63.018 36.831C62.7923 36.5847 62.5187 36.4001 62.1973 36.2633C61.8758 36.1333 61.4997 36.0649 61.0825 36.0581C60.6584 36.0581 60.2822 36.1265 59.9539 36.2564C59.6257 36.3864 59.3521 36.5711 59.1332 36.8173C58.9143 37.0635 58.7434 37.3508 58.6271 37.6859C58.5108 38.021 58.4493 38.3972 58.4493 38.8076ZM59.5709 38.8076C59.5709 38.6161 59.5915 38.4314 59.6257 38.2467C59.6599 38.0621 59.7146 37.8911 59.7966 37.7269C59.8719 37.5628 59.9676 37.4191 60.0907 37.296C60.207 37.1729 60.3506 37.0772 60.5148 37.0019C60.6789 36.9336 60.8704 36.8925 61.0825 36.8925C61.2945 36.8925 61.486 36.9267 61.6501 37.0019C61.8143 37.0703 61.9579 37.1729 62.0741 37.296C62.1904 37.4191 62.293 37.5628 62.3683 37.7269C62.4435 37.8911 62.4982 38.0621 62.5393 38.2467C62.5735 38.4314 62.594 38.6161 62.594 38.8076C62.594 38.9991 62.5803 39.1906 62.5461 39.3821C62.5119 39.5667 62.4572 39.7446 62.3819 39.9087C62.3067 40.0729 62.211 40.2165 62.0947 40.3396C61.9784 40.4627 61.8348 40.5653 61.6706 40.6337C61.5065 40.7021 61.315 40.7431 61.0961 40.7431C60.8773 40.7431 60.6858 40.7089 60.5216 40.6337C60.3575 40.5653 60.2139 40.4627 60.0976 40.3396C59.9813 40.2165 59.8855 40.0729 59.8103 39.9087C59.7351 39.7446 59.6804 39.5667 59.6462 39.3821C59.5846 39.1906 59.5709 38.9991 59.5709 38.8076ZM65.3913 41.4955H66.4172V37.0977L66.4309 37.084L67.874 41.4955H68.8999L70.343 37.084H70.3567V41.4955H71.3826V36.147H69.6659L68.3938 40.2028H68.3801L67.108 36.147H65.3913V41.4955Z" fill="white"/>
</svg>
