<svg width="90" height="44" viewBox="0 0 90 44" fill="none" xmlns="http://www.w3.org/2000/svg">
<path fill-rule="evenodd" clip-rule="evenodd" d="M40.0929 22.66V8.55029H36.0986V26.2028H47.1785V22.66H40.0929Z" fill="white"/>
<path d="M52.8688 13.4814H48.8745V26.2028H52.8688V13.4814Z" fill="white"/>
<path d="M52.8688 8.55029H48.8745V12.0452H52.8688V8.55029Z" fill="white"/>
<path fill-rule="evenodd" clip-rule="evenodd" d="M76.1773 13.4952H72.9149V8.55029H68.9138V13.4952H60.2551C55.6796 13.4952 54.5784 16.5593 54.5784 18.1255C54.5716 22.065 59.6738 22.4822 59.7422 22.5027L59.9269 22.5164L56.9175 26.1002H57.0406C57.7656 26.0866 58.8531 26.0866 60.132 26.1071C63.0798 26.1618 63.8185 26.9346 63.8185 27.8443C63.8185 28.6992 62.7174 29.4447 60.9528 29.4447C58.8326 29.4447 57.6699 28.9181 57.6699 27.9537V27.8511L53.9903 27.8443C53.9766 27.94 53.9766 28.0358 53.9766 28.1247C53.9766 29.8072 55.4128 31.818 60.7613 31.818C64.8718 31.818 67.4844 30.4911 67.4844 27.5433C67.4844 26.9073 67.2929 25.9156 66.4654 25.088C66.0413 24.6571 64.9949 23.7954 61.6846 23.6722C61.5683 23.6654 61.4657 23.6654 61.37 23.6586C61.37 23.6586 61.9103 23.3439 62.177 23.1798C63.2645 22.53 64.4682 22.0308 65.4736 21.0801C66.1781 20.4099 66.6295 19.425 66.6295 18.2965C66.6295 17.551 66.438 16.9491 65.9934 16.1762H68.9138V26.2097H72.9149V16.1694H74.7205C75.9653 16.1694 76.7929 16.9217 76.7929 18.8231V26.2097H80.7871V17.9682C80.7871 14.5142 78.4959 13.4952 76.1773 13.4952ZM60.6177 20.6082C59.3524 20.6082 58.2991 19.5617 58.2991 18.317C58.2991 17.0243 59.2908 15.9984 60.6177 15.9984C61.9992 15.9984 62.9088 17.0175 62.9088 18.1734C62.9088 19.5071 61.8898 20.6082 60.6177 20.6082Z" fill="white"/>
<path fill-rule="evenodd" clip-rule="evenodd" d="M21.0724 4.5014L21.2639 4.18681L23.261 0.91072L22.2351 0.28833L19.5061 3.53706L19.171 3.93375L18.8701 4.28938L17.6732 5.71199L8.40576 16.7577H13.6106H23.4252L25.7163 14.0287H15.2725L19.9165 6.38908C21.5648 7.07303 23.0284 8.11945 24.2048 9.41894C24.28 9.50786 24.3621 9.59678 24.4374 9.68569C24.7178 10.014 24.9777 10.3628 25.2239 10.7185C25.4701 11.0741 25.6958 11.4503 25.901 11.8333C25.9694 11.9632 26.031 12.0932 26.0993 12.2231C26.2909 12.613 26.4618 13.0233 26.6055 13.4405C26.7149 13.7551 26.8106 14.0698 26.8995 14.3981C26.9885 14.7195 27.0569 15.0478 27.1116 15.3829C27.1663 15.7181 27.2142 16.0532 27.2415 16.3952C27.2689 16.7371 27.2894 17.086 27.2894 17.4348C27.2894 17.8999 27.2621 18.3581 27.2142 18.8095C27.2005 18.9189 27.1868 19.0352 27.1731 19.1446C27.1047 19.5892 27.0227 20.0337 26.9064 20.4578C26.8243 20.7792 26.7286 21.1007 26.6192 21.4085C26.4755 21.8257 26.3045 22.2292 26.113 22.6191C25.9421 22.9679 25.7574 23.303 25.559 23.6381C25.2581 24.1306 24.923 24.6025 24.5605 25.0402C24.3143 25.3343 24.0612 25.6216 23.7876 25.8883C23.3841 26.2918 22.9464 26.668 22.4882 27.0168C22.0299 27.3588 21.5443 27.6734 21.0314 27.947C20.8604 28.0427 20.6894 28.1316 20.5184 28.2137C20.3201 28.3095 20.1217 28.3983 19.9234 28.4804C19.6224 28.6104 19.3146 28.7198 19 28.8224C18.5828 28.9592 18.1519 29.0686 17.7142 29.1576C17.3859 29.2259 17.0508 29.2738 16.7157 29.3148C16.2643 29.3696 15.806 29.3901 15.3409 29.3901C15.2726 29.3901 15.1973 29.3901 15.1289 29.3832L13.8431 30.9152L13.5353 31.2778C14.1304 31.3393 14.7322 31.3735 15.3409 31.3735C23.815 31.3735 30.6818 25.1291 30.6818 17.4211C30.6681 11.5871 26.7012 6.57374 21.0724 4.5014Z" fill="white"/>
<path fill-rule="evenodd" clip-rule="evenodd" d="M17.0507 18.1254H7.23608L4.94489 20.8543H15.3955L10.7447 28.4939C9.73247 28.0699 8.78864 27.5159 7.93372 26.8456C7.6533 26.6199 7.37972 26.3874 7.11982 26.1412C6.9078 25.9428 6.70945 25.7377 6.5111 25.5256C5.92975 24.8896 5.40996 24.1851 4.97908 23.4327C4.76022 23.0566 4.56188 22.6667 4.38405 22.2632C4.0626 21.5246 3.80956 20.7517 3.63858 19.9515C3.59754 19.7531 3.55648 19.548 3.52912 19.3428C3.49493 19.1376 3.46757 18.9324 3.44705 18.7204C3.40602 18.3032 3.37868 17.8791 3.37868 17.4551C3.37868 16.9421 3.41284 16.4292 3.4744 15.9299C3.48808 15.8068 3.50861 15.6837 3.52912 15.5606C3.57016 15.3144 3.61121 15.0682 3.66592 14.8288C3.77535 14.3432 3.91212 13.8712 4.07627 13.413C4.28145 12.8385 4.53453 12.2845 4.82179 11.7579C5.00645 11.4159 5.2048 11.0876 5.42366 10.773C5.85454 10.1369 6.34015 9.54188 6.88731 9.00157C9.04856 6.84031 12.0442 5.49979 15.3408 5.49979C15.4161 5.49979 15.4845 5.49979 15.5528 5.49979L17.1464 3.59841C16.5514 3.53685 15.9495 3.50269 15.3408 3.50269C6.86678 3.50269 0 9.74705 0 17.4482C0 23.3096 3.97369 28.323 9.60254 30.3885L9.41101 30.703L7.41391 33.986L8.43983 34.6152L11.1687 31.3596L11.5039 30.9629L11.8048 30.6073L13.0017 29.1847L22.2692 18.139H17.0507V18.1254Z" fill="white"/>
<path fill-rule="evenodd" clip-rule="evenodd" d="M90 11.9084H87.6883V8.68701H83.6872V11.9084H81.3755V14.5826H83.6872V26.3396H87.6883V14.5826H90V11.9084Z" fill="white"/>
<path d="M87.6132 33.9041H36.0029V43.7118H87.6132V33.9041Z" fill="white"/>
<path d="M56.6989 40.5248C56.6099 40.5658 56.5074 40.6068 56.3774 40.641C56.2475 40.6752 56.1107 40.7026 55.967 40.7231C55.8166 40.7436 55.673 40.7504 55.5293 40.7504C55.2421 40.7504 54.989 40.7026 54.7633 40.6068C54.5376 40.5111 54.3461 40.3811 54.1956 40.2101C54.0383 40.0391 53.9221 39.834 53.84 39.6083C53.7579 39.3757 53.7169 39.1227 53.7169 38.8491C53.7169 38.5755 53.7579 38.3156 53.84 38.0831C53.9221 37.8505 54.0383 37.6453 54.1956 37.4675C54.353 37.2897 54.5376 37.1529 54.7633 37.0572C54.9822 36.9614 55.2352 36.9135 55.5088 36.9067C55.6388 36.9067 55.7619 36.9135 55.8918 36.9272C56.0149 36.9409 56.1449 36.9751 56.2748 37.0161C56.4048 37.0572 56.5347 37.1187 56.6715 37.194L56.7467 36.2912C56.6168 36.2433 56.48 36.1954 56.3364 36.1612C56.1928 36.127 56.0559 36.1065 55.9192 36.0859C55.7824 36.0723 55.6524 36.0654 55.5361 36.0654C55.0847 36.0654 54.6744 36.127 54.3119 36.2569C53.9494 36.38 53.6417 36.5647 53.3886 36.811C53.1355 37.0572 52.9372 37.3513 52.8072 37.7069C52.6704 38.0626 52.6089 38.4661 52.6021 38.9243C52.6021 39.3757 52.6773 39.7724 52.8141 40.1075C52.9577 40.4427 53.156 40.7231 53.4159 40.942C53.6758 41.1608 53.9836 41.3249 54.3461 41.4344C54.7017 41.5438 55.0984 41.5986 55.5361 41.5986C55.7413 41.5986 55.9465 41.578 56.1517 41.5507C56.3569 41.5165 56.5621 41.4822 56.7536 41.4344L56.6989 40.5248ZM58.4497 38.8081C58.4497 39.2184 58.5045 39.5946 58.6207 39.9365C58.7302 40.2785 58.9012 40.5658 59.12 40.812C59.3389 41.0582 59.6124 41.2497 59.9407 41.3865C60.269 41.5233 60.6452 41.5917 61.0761 41.5917C61.5002 41.5917 61.8763 41.5233 62.1978 41.3865C62.5261 41.2497 62.7996 41.0582 63.0185 40.812C63.2373 40.5658 63.4084 40.2717 63.5246 39.9297C63.6409 39.5946 63.6956 39.2184 63.6956 38.8149C63.6956 38.4114 63.6341 38.0352 63.5246 37.7001C63.4084 37.3649 63.2442 37.0777 63.0185 36.8315C62.7928 36.5852 62.5192 36.4006 62.1978 36.2638C61.8763 36.1338 61.5002 36.0654 61.083 36.0586C60.6589 36.0586 60.2827 36.127 59.9544 36.2569C59.6261 36.3869 59.3526 36.5715 59.1337 36.8178C58.9148 37.064 58.7439 37.3512 58.6276 37.6864C58.5113 38.0215 58.4497 38.3977 58.4497 38.8081ZM59.5714 38.8081C59.5714 38.6166 59.592 38.4319 59.6262 38.2472C59.6603 38.0626 59.7151 37.8916 59.7971 37.7274C59.8724 37.5633 59.9681 37.4196 60.0912 37.2965C60.2075 37.1734 60.3511 37.0777 60.5153 37.0024C60.6794 36.934 60.8709 36.893 61.083 36.893C61.295 36.893 61.4864 36.9272 61.6506 37.0024C61.8147 37.0708 61.9584 37.1734 62.0746 37.2965C62.1909 37.4196 62.2935 37.5633 62.3688 37.7274C62.444 37.8916 62.4987 38.0626 62.5398 38.2472C62.574 38.4319 62.5944 38.6166 62.5944 38.8081C62.5944 38.9996 62.5808 39.191 62.5466 39.3825C62.5124 39.5672 62.4577 39.745 62.3824 39.9092C62.3072 40.0733 62.2114 40.217 62.0952 40.3401C61.9789 40.4632 61.8353 40.5658 61.6711 40.6342C61.507 40.7026 61.3155 40.7436 61.0966 40.7436C60.8777 40.7436 60.6863 40.7094 60.5221 40.6342C60.358 40.5658 60.2143 40.4632 60.0981 40.3401C59.9818 40.217 59.886 40.0733 59.8108 39.9092C59.7356 39.745 59.6808 39.5672 59.6466 39.3825C59.5851 39.191 59.5714 38.9996 59.5714 38.8081ZM65.3918 41.4959H66.4177V37.0982L66.4314 37.0845L67.8745 41.4959H68.9004L70.3435 37.0845H70.3572V41.4959H71.3831V36.1475H69.6664L68.3943 40.2033H68.3806L67.1085 36.1475H65.3918V41.4959Z" fill="#3677E0"/>
</svg>
