<svg width="32" height="32" viewBox="0 0 32 32" fill="none" xmlns="http://www.w3.org/2000/svg">
<path fill-rule="evenodd" clip-rule="evenodd" d="M0.406738 32C0.299265 32 0.195049 31.9577 0.117701 31.8795C0.0159278 31.7761 -0.0239672 31.6255 0.0142996 31.4862L2.16294 23.6407C0.830929 21.2747 0.128286 18.5879 0.129914 15.8604C0.133171 7.11437 7.24998 0 15.9952 0C20.2371 0.00162837 24.2225 1.65361 27.2179 4.65145C30.2133 7.6501 31.862 11.6347 31.8604 15.8718C31.8572 24.6169 24.7395 31.7321 15.9952 31.7321C13.3987 31.7313 10.83 31.0905 8.55024 29.8782L0.510139 31.9862C0.475944 31.9959 0.441748 32 0.406738 32Z" fill="white"/>
<path fill-rule="evenodd" clip-rule="evenodd" d="M25.083 6.78376C22.6567 4.35586 19.4317 3.01815 15.9991 3.01733C8.9124 3.01733 3.14877 8.77852 3.14551 15.8603C3.14469 18.2874 3.82373 20.6502 5.11014 22.6962L5.41628 23.1823L4.11765 27.9217L8.98079 26.6467L9.45057 26.9251C11.4225 28.0959 13.6843 28.7147 15.9901 28.7155H15.995C23.0768 28.7155 28.8404 22.9535 28.8429 15.8709C28.8437 12.4391 27.5092 9.21167 25.083 6.78376Z" fill="#40C351"/>
<path fill-rule="evenodd" clip-rule="evenodd" d="M12.1311 9.39981C11.8421 8.7566 11.5376 8.74358 11.2616 8.73218C11.036 8.72241 10.7788 8.72322 10.5215 8.72322C10.2642 8.72322 9.8457 8.82011 9.49152 9.20685C9.13735 9.59359 8.13916 10.5275 8.13916 12.4278C8.13916 14.3281 9.52328 16.1649 9.71624 16.4222C9.9092 16.6795 12.3884 20.704 16.3144 22.2526C19.5769 23.539 20.2412 23.2833 20.9496 23.219C21.6579 23.1547 23.235 22.2851 23.5566 21.383C23.8782 20.4809 23.8782 19.7082 23.7821 19.547C23.6853 19.3858 23.428 19.2897 23.042 19.096C22.6561 18.9022 20.7566 17.9683 20.4024 17.8397C20.0483 17.711 19.791 17.6467 19.5329 18.0335C19.2756 18.4194 18.5355 19.2897 18.31 19.547C18.0845 19.8051 17.8589 19.8377 17.473 19.6439C17.0871 19.4501 15.843 19.043 14.3669 17.7273C13.2189 16.7039 12.4438 15.4395 12.2182 15.0527C11.9927 14.6668 12.1938 14.4575 12.3876 14.2646C12.561 14.0912 12.7735 13.8135 12.9673 13.588C13.1603 13.3625 13.2246 13.2013 13.3532 12.944C13.4819 12.6859 13.4175 12.4603 13.3206 12.2674C13.2254 12.0736 12.4747 10.1635 12.1311 9.39981Z" fill="white"/>
</svg>
