<svg width="16" height="21" viewBox="0 0 16 21" fill="none" xmlns="http://www.w3.org/2000/svg">
<path d="M3.25 7.175H3.275V7.15V4.75C3.275 3.44244 3.7358 2.32865 4.65792 1.40718L4.65792 1.40718C5.57988 0.485553 6.69435 0.025 8.00275 0.025C9.31098 0.025 10.4245 0.485551 11.3448 1.40717C12.2651 2.32863 12.725 3.44243 12.725 4.75V7.15V7.175H12.75H14.5C14.9058 7.175 15.2526 7.31916 15.5418 7.60817C15.8308 7.89736 15.975 8.24418 15.975 8.65V19.5C15.975 19.9058 15.8308 20.2526 15.5418 20.5416C15.2526 20.8308 14.9058 20.975 14.5 20.975H1.5C1.09419 20.975 0.747448 20.8308 0.458433 20.5416L0.458423 20.5416C0.169243 20.2526 0.025 19.9058 0.025 19.5V8.65C0.025 8.24419 0.169244 7.89736 0.458428 7.60818C0.747442 7.31916 1.09418 7.175 1.5 7.175H3.25ZM1.475 19.5V19.525H1.5H14.5H14.525V19.5V8.65V8.625H14.5H1.5H1.475V8.65V19.5ZM4.725 7.15V7.175H4.75H11.25H11.275V7.15V4.75C11.275 3.84062 10.9568 3.06691 10.3207 2.43033C9.68461 1.79359 8.91156 1.475 8.003 1.475C7.09444 1.475 6.3204 1.79358 5.68234 2.4303C5.04426 3.06687 4.725 3.84059 4.725 4.75V7.15ZM9.34501 15.4314C8.97474 15.7939 8.52829 15.975 8.00425 15.975C7.4802 15.975 7.03229 15.7942 6.65916 15.4321C6.28598 15.0699 6.1 14.6388 6.1 14.1375C6.1 13.636 6.28473 13.1836 6.65591 12.7794C7.02642 12.376 7.4726 12.175 7.99575 12.175C8.51891 12.175 8.96654 12.376 9.3399 12.7795C9.71398 13.1838 9.9 13.632 9.9 14.125C9.9 14.6338 9.7153 15.0688 9.34501 15.4314Z" fill="#3677E0" stroke="#797979" stroke-width="0.05"/>
</svg>
