<svg width="32" height="32" viewBox="0 0 32 32" fill="none" xmlns="http://www.w3.org/2000/svg">
<path d="M16 15.9492C13.8 15.9492 12 15.2492 10.6 13.8492C9.2 12.4492 8.5 10.6492 8.5 8.44922C8.5 6.24922 9.2 4.44922 10.6 3.04922C12 1.64922 13.8 0.949219 16 0.949219C18.2 0.949219 20 1.64922 21.4 3.04922C22.8 4.44922 23.5 6.24922 23.5 8.44922C23.5 10.6492 22.8 12.4492 21.4 13.8492C20 15.2492 18.2 15.9492 16 15.9492ZM0 31.9992V27.2992C0 26.0326 0.316667 24.9492 0.95 24.0492C1.58333 23.1492 2.4 22.4659 3.4 21.9992C5.63333 20.9992 7.775 20.2492 9.825 19.7492C11.875 19.2492 13.9333 18.9992 16 18.9992C18.0667 18.9992 20.1167 19.2576 22.15 19.7742C24.1833 20.2909 26.3153 21.0357 28.546 22.0087C29.5893 22.4797 30.4258 23.1626 31.0555 24.0572C31.6852 24.9519 32 26.0326 32 27.2992V31.9992H0ZM3 28.9992H29V27.2992C29 26.7659 28.8417 26.2576 28.525 25.7742C28.2083 25.2909 27.8167 24.9326 27.35 24.6992C25.2167 23.6659 23.2667 22.9576 21.5 22.5742C19.7333 22.1909 17.9 21.9992 16 21.9992C14.1 21.9992 12.25 22.1909 10.45 22.5742C8.65 22.9576 6.7 23.6659 4.6 24.6992C4.13333 24.9326 3.75 25.2909 3.45 25.7742C3.15 26.2576 3 26.7659 3 27.2992V28.9992ZM16 12.9492C17.3 12.9492 18.375 12.5242 19.225 11.6742C20.075 10.8242 20.5 9.74922 20.5 8.44922C20.5 7.14922 20.075 6.07422 19.225 5.22422C18.375 4.37422 17.3 3.94922 16 3.94922C14.7 3.94922 13.625 4.37422 12.775 5.22422C11.925 6.07422 11.5 7.14922 11.5 8.44922C11.5 9.74922 11.925 10.8242 12.775 11.6742C13.625 12.5242 14.7 12.9492 16 12.9492Z" fill="#3677E0"/>
</svg>
