<svg width="66" height="66" viewBox="0 0 66 66" fill="none" xmlns="http://www.w3.org/2000/svg">
<path d="M28.2062 47.7875L51.2 24.7937L47.4625 21.1375L28.2062 40.3937L18.4562 30.6437L14.8 34.3L28.2062 47.7875ZM33 65.5C28.5583 65.5 24.3604 64.6469 20.4062 62.9406C16.4521 61.2344 12.999 58.9052 10.0469 55.9531C7.09479 53.001 4.76562 49.5479 3.05937 45.5938C1.35312 41.6396 0.5 37.4417 0.5 33C0.5 28.5042 1.35312 24.2792 3.05937 20.325C4.76562 16.3708 7.09479 12.9312 10.0469 10.0062C12.999 7.08125 16.4521 4.76562 20.4062 3.05937C24.3604 1.35312 28.5583 0.5 33 0.5C37.4958 0.5 41.7208 1.35312 45.675 3.05937C49.6292 4.76562 53.0687 7.08125 55.9937 10.0062C58.9187 12.9312 61.2344 16.3708 62.9406 20.325C64.6469 24.2792 65.5 28.5042 65.5 33C65.5 37.4417 64.6469 41.6396 62.9406 45.5938C61.2344 49.5479 58.9187 53.001 55.9937 55.9531C53.0687 58.9052 49.6292 61.2344 45.675 62.9406C41.7208 64.6469 37.4958 65.5 33 65.5ZM33 60.625C40.6917 60.625 47.2188 57.9302 52.5812 52.5406C57.9437 47.151 60.625 40.6375 60.625 33C60.625 25.3083 57.9437 18.7812 52.5812 13.4187C47.2188 8.05625 40.6917 5.375 33 5.375C25.3625 5.375 18.849 8.05625 13.4594 13.4187C8.06979 18.7812 5.375 25.3083 5.375 33C5.375 40.6375 8.06979 47.151 13.4594 52.5406C18.849 57.9302 25.3625 60.625 33 60.625Z" fill="#3677E0"/>
</svg>
