<svg width="36" height="43" viewBox="0 0 36 43" fill="none" xmlns="http://www.w3.org/2000/svg">
<mask id="mask0_7_170" style="mask-type:luminance" maskUnits="userSpaceOnUse" x="0" y="3" width="36" height="37">
<path d="M36 3.31006H0V39.3101H36V3.31006Z" fill="white"/>
</mask>
<g mask="url(#mask0_7_170)">
<path d="M34.9453 19.6225H33.0056C32.5371 18.4526 31.8912 17.3657 31.0781 16.3796V10.8335C31.0781 10.251 30.6059 9.77881 30.0234 9.77881H28.7313C27.2139 9.77881 25.8457 10.6011 25.1231 11.8882H23.6416C23.1306 16.7417 19.014 20.5367 14.0273 20.5367C10.6484 20.5367 7.66919 18.7937 5.94021 16.1603C5.30958 16.8911 4.76353 17.6942 4.32141 18.5493C3.62904 19.8882 3.19036 21.3593 3.0266 22.8644C2.47725 22.5313 2.10938 21.9277 2.10938 21.2398V20.6772C2.10938 20.0948 1.63716 19.6225 1.05469 19.6225C0.472219 19.6225 0 20.0948 0 20.6772V21.2398C0 23.0969 1.26999 24.6628 2.98708 25.1153C3.19999 28.0122 4.41443 30.6958 6.46875 32.79V38.2553C6.46875 38.8379 6.94097 39.3101 7.52343 39.3101H11.7422C12.237 39.3101 12.6652 38.9661 12.7719 38.483L13.2492 36.324C13.9257 36.4393 14.5978 36.4976 15.2578 36.4976H21.5859C22.0125 36.4976 22.4481 36.473 22.889 36.4244L23.3712 38.4947C23.4825 38.9722 23.9081 39.3101 24.3984 39.3101H28.6172C29.1997 39.3101 29.6719 38.8379 29.6719 38.2553V33.4518C31.1467 32.1631 32.2854 30.5607 33.0056 28.7632H34.9453C35.5278 28.7632 36 28.291 36 27.7085V20.6772C36 20.0948 35.5278 19.6225 34.9453 19.6225ZM27.2109 21.3803C26.6284 21.3803 26.1562 20.9081 26.1562 20.3257C26.1562 19.7432 26.6284 19.271 27.2109 19.271C27.7934 19.271 28.2657 19.7432 28.2657 20.3257C28.2657 20.9081 27.7934 21.3803 27.2109 21.3803Z" fill="url(#paint0_linear_7_170)"/>
<path d="M14.0273 3.31006C9.85945 3.31006 6.46875 6.7008 6.46875 10.8687C6.46875 15.0365 9.85945 18.4272 14.0273 18.4272C18.1952 18.4272 21.5859 15.0365 21.5859 10.8687C21.5859 6.7008 18.1952 3.31006 14.0273 3.31006ZM17.0411 11.4113L14.9317 14.9269C14.7339 15.2566 14.3846 15.4391 14.0264 15.4391C13.8417 15.4391 13.6546 15.3906 13.4847 15.2886C12.9852 14.989 12.8233 14.3411 13.1229 13.8416L14.274 11.9233H11.918C11.538 11.9233 11.1873 11.7189 11.0001 11.3883C10.8129 11.0577 10.8182 10.6518 11.0136 10.326L13.1229 6.81042C13.4227 6.31092 14.0707 6.14892 14.5701 6.44867C15.0695 6.74834 15.2314 7.3962 14.9318 7.8957L13.7808 9.81396H16.1367C16.5167 9.81396 16.8674 10.0184 17.0545 10.349C17.2418 10.6797 17.2366 11.0855 17.0411 11.4113Z" fill="url(#paint1_linear_7_170)"/>
</g>
<defs>
<linearGradient id="paint0_linear_7_170" x1="-19.98" y1="-17.5376" x2="35.2474" y2="65.7281" gradientUnits="userSpaceOnUse">
<stop stop-color="#FF0000"/>
<stop offset="1" stop-color="#EF7C05"/>
</linearGradient>
<linearGradient id="paint1_linear_7_170" x1="-1.9213" y1="-10.6734" x2="28.0863" y2="26.4394" gradientUnits="userSpaceOnUse">
<stop stop-color="#FF0000"/>
<stop offset="1" stop-color="#EF7C05"/>
</linearGradient>
</defs>
</svg>
