<svg width="80" height="81" viewBox="0 0 80 81" fill="none" xmlns="http://www.w3.org/2000/svg">
<circle opacity="0.1" cx="40" cy="40.1001" r="40" fill="#855FCE"/>
<path d="M21.25 23.6954L23.75 26.8488V34.2938C23.6833 37.1071 26.945 39.6271 29.9983 42.2138" stroke="black" stroke-width="1.5" stroke-linecap="round" stroke-linejoin="round"/>
<path d="M28.7184 32.2638L31.6668 35.2838C32.1729 35.8033 32.9177 36.0134 33.6207 35.8348C34.3237 35.6563 34.878 35.1162 35.0749 34.4182C35.2718 33.7201 35.0812 32.97 34.5751 32.4505L29.9901 27.7722V25.3338C29.7417 23.8727 29.1861 22.481 28.3601 21.2505" stroke="black" stroke-width="1.5" stroke-linecap="round" stroke-linejoin="round"/>
<path d="M30 33.5638V53.7505C30 55.1312 31.1193 56.2505 32.5 56.2505H45" stroke="black" stroke-width="1.5" stroke-linecap="round" stroke-linejoin="round"/>
<path d="M58.7501 56.3038L56.2501 53.1505V45.7071C56.3084 43.2755 53.8818 41.0638 51.2501 38.8405V47.7038L48.3334 44.7171C47.551 43.914 46.2657 43.8972 45.4626 44.6796C44.6595 45.462 44.6427 46.7473 45.4251 47.5505L50.0168 52.2305V54.6671C50.2664 56.1258 50.8219 57.5151 51.6468 58.7438" stroke="black" stroke-width="1.5" stroke-linecap="round" stroke-linejoin="round"/>
<path d="M41.63 50.0005H35" stroke="black" stroke-width="1.5" stroke-linecap="round" stroke-linejoin="round"/>
<path d="M37.5 43.7505H35" stroke="black" stroke-width="1.5" stroke-linecap="round" stroke-linejoin="round"/>
<path d="M53.75 28.7505C53.75 32.8926 50.3921 36.2505 46.25 36.2505C42.1079 36.2505 38.75 32.8926 38.75 28.7505C38.75 24.6084 42.1079 21.2505 46.25 21.2505" stroke="black" stroke-width="1.5" stroke-linecap="round" stroke-linejoin="round"/>
<path d="M53.7501 23.1238L46.9167 29.9571C46.7403 30.1346 46.5003 30.2344 46.2501 30.2344C45.9998 30.2344 45.7598 30.1346 45.5834 29.9571L43.4351 27.8071" stroke="black" stroke-width="1.5" stroke-linecap="round" stroke-linejoin="round"/>
</svg>
