<svg width="80" height="81" viewBox="0 0 80 81" fill="none" xmlns="http://www.w3.org/2000/svg">
<circle opacity="0.1" cx="40" cy="40.1001" r="40" fill="#2F80ED"/>
<circle cx="40" cy="26.2505" r="5" stroke="black" stroke-width="1.5" stroke-linecap="round" stroke-linejoin="round"/>
<path fill-rule="evenodd" clip-rule="evenodd" d="M46.25 43.7505V40.0005C46.25 36.5487 43.4518 33.7505 40 33.7505C36.5482 33.7505 33.75 36.5487 33.75 40.0005V43.7505H36.25L37.5 53.7505H42.5L43.75 43.7505H46.25Z" stroke="black" stroke-width="1.5" stroke-linecap="round" stroke-linejoin="round"/>
<circle cx="27.5" cy="30.0005" r="3.75" stroke="black" stroke-width="1.5" stroke-linecap="round" stroke-linejoin="round"/>
<path d="M29.5 36.5788C27.5925 35.9369 25.4926 36.252 23.8576 37.4256C22.2226 38.5992 21.2521 40.4879 21.25 42.5005V43.7505H23.75L25 51.2505H30L30.6267 47.4905" stroke="black" stroke-width="1.5" stroke-linecap="round" stroke-linejoin="round"/>
<circle cx="52.5" cy="30.0005" r="3.75" stroke="black" stroke-width="1.5" stroke-linecap="round" stroke-linejoin="round"/>
<path d="M50.5 36.5788C52.4075 35.9369 54.5073 36.252 56.1423 37.4256C57.7774 38.5992 58.7478 40.4879 58.75 42.5005V43.7505H56.25L55 51.2505H50L49.3733 47.4905" stroke="black" stroke-width="1.5" stroke-linecap="round" stroke-linejoin="round"/>
<path d="M58.75 55.0005C58.75 57.0722 50.355 58.7505 40 58.7505C29.645 58.7505 21.25 57.0722 21.25 55.0005" stroke="black" stroke-width="1.5" stroke-linecap="round" stroke-linejoin="round"/>
</svg>
